<?xml version="1.0" encoding="UTF-8" standalone="no"?>
<svg
   xmlns:dc="http://purl.org/dc/elements/1.1/"
   xmlns:cc="http://creativecommons.org/ns#"
   xmlns:rdf="http://www.w3.org/1999/02/22-rdf-syntax-ns#"
   xmlns:svg="http://www.w3.org/2000/svg"
   xmlns="http://www.w3.org/2000/svg"
   xmlns:sodipodi="http://sodipodi.sourceforge.net/DTD/sodipodi-0.dtd"
   xmlns:inkscape="http://www.inkscape.org/namespaces/inkscape"
   version="1.0"
   width="119.00443"
   height="103.3109"
   viewBox="0 0 95.203539 82.648715"
   preserveAspectRatio="xMidYMid meet"
   id="svg4125"
   inkscape:version="0.91 r13725"
   sodipodi:docname="logo_linework.svg">
  <defs
     id="defs4209" />
  <sodipodi:namedview
     pagecolor="#ffffff"
     bordercolor="#666666"
     borderopacity="1"
     objecttolerance="20"
     gridtolerance="10"
     guidetolerance="10"
     inkscape:pageopacity="0"
     inkscape:pageshadow="2"
     inkscape:window-width="1680"
     inkscape:window-height="1026"
     id="namedview4207"
     showgrid="false"
     fit-margin-top="0"
     fit-margin-left="0"
     fit-margin-right="0"
     fit-margin-bottom="0"
     inkscape:zoom="4.0945947"
     inkscape:cx="-9.9427079"
     inkscape:cy="43.004454"
     inkscape:window-x="0"
     inkscape:window-y="24"
     inkscape:window-maximized="1"
     inkscape:current-layer="layer2"
     inkscape:snap-others="true"
     inkscape:snap-object-midpoints="true"
     inkscape:snap-nodes="true"
     inkscape:object-paths="true"
     inkscape:snap-intersection-paths="true"
     inkscape:object-nodes="true"
     inkscape:snap-smooth-nodes="true" />
  <metadata
     id="metadata4127">
Created by potrace 1.11, written by Peter Selinger 2001-2013
<rdf:RDF>
  <cc:Work
     rdf:about="">
    <dc:format>image/svg+xml</dc:format>
    <dc:type
       rdf:resource="http://purl.org/dc/dcmitype/StillImage" />
    <dc:title></dc:title>
  </cc:Work>
</rdf:RDF>
</metadata>
  <g
     inkscape:groupmode="layer"
     id="layer1"
     inkscape:label="bg"
     transform="translate(-11.629184,-14.182241)" />
  <g
     inkscape:groupmode="layer"
     id="layer2"
     inkscape:label="fg"
     transform="translate(-11.629184,-14.182241)">
    <path
       style="opacity:1;fill:#ffffff;fill-opacity:1;stroke:none;stroke-width:0.35433072;stroke-linecap:round;stroke-miterlimit:4;stroke-dasharray:none;stroke-opacity:1"
       d="m 93.181641,17.732422 c -0.480398,-0.01279 -0.96448,3.94e-4 -1.28125,0.04687 -1.12733,0.15804 -2.301049,0.613934 -3.21875,1.246094 -0.423914,0.288191 -1.118365,0.882702 -1.244141,1.054687 l -0.08789,0.121094 -0.363281,-0.06445 c -0.214285,-0.03719 -0.657366,-0.06641 -1.085937,-0.06641 -1.062113,-0.0046 -1.900209,0.190488 -2.808594,0.636719 -1.830746,0.911055 -3.098784,2.594266 -3.466797,4.597657 -0.1118,0.618179 -0.102339,1.723891 0.02344,2.328124 0.05124,0.255654 0.108311,0.49918 0.126953,0.541016 0.01864,0.05578 -0.02911,0.110913 -0.1875,0.199219 -0.116463,0.06973 -0.237675,0.162497 -0.265625,0.208984 -0.04192,0.06968 -0.102699,0.07914 -0.410157,0.06055 -0.475155,-0.02789 -0.651069,0.03643 -1.009765,0.371094 -0.666149,0.618192 -1.626843,0.822452 -2.921875,0.613281 -0.437889,-0.07437 -0.488681,-0.07437 -0.740235,0 -0.875776,0.255654 -1.158481,1.358543 -0.515625,2 0.340064,0.34397 0.916367,0.46875 2.160157,0.46875 0.885092,0 1.291027,-0.06055 1.980468,-0.292969 l 0.373047,-0.128906 0.138672,0.232422 c 0.20497,0.34397 0.498411,0.510709 0.931641,0.529297 0.652174,0.03254 0.983405,-0.218354 1.328125,-1.003906 0.107137,-0.246357 0.209879,-0.465788 0.228515,-0.484375 0.01398,-0.0186 0.167484,-0.0032 0.339844,0.0293 0.265529,0.05114 0.344308,0.08798 0.558594,0.283204 0.526396,0.469472 1.383419,0.961416 2.105469,1.203125 1.625776,0.539196 3.411197,0.414184 4.953125,-0.357422 l 0.408203,-0.208985 0.419922,0.205078 c 1.211181,0.581032 2.622185,0.84081 3.921875,0.72461 0.656831,-0.06043 1.122647,-0.148601 1.621093,-0.306641 l 0.332032,-0.107422 0.390625,0.134766 c 2.007765,0.673995 4.331881,0.08767 5.808591,-1.464844 1.07609,-1.13417 1.6163,-2.602451 1.53711,-4.1875 -0.0745,-1.431656 -0.63771,-2.681255 -1.67188,-3.699219 -0.36801,-0.357878 -1.06707,-0.851686 -1.48632,-1.046874 -0.247047,-0.111563 -0.274894,-0.14443 -0.507814,-0.548829 -1.131989,-1.994094 -2.930294,-3.30498 -5.152344,-3.755859 -0.305123,-0.06042 -0.781322,-0.09855 -1.261718,-0.111328 z m -0.945313,0.841797 c 0.409938,-0.05113 1.66758,0.01446 2.105469,0.107422 1.313665,0.283542 2.416876,0.883048 3.367187,1.835937 0.568324,0.571733 0.868012,0.976789 1.25,1.697266 l 0.25586,0.478515 0.363281,0.158203 c 0.791925,0.343971 1.560145,0.988705 2.058595,1.732422 1.68634,2.510049 0.59237,5.9354 -2.253908,7.074219 -1.071426,0.427661 -2.361861,0.42838 -3.447265,-0.0039 l -0.378906,-0.148438 -0.414063,0.144532 c -0.773292,0.260306 -1.303159,0.34375 -2.183594,0.34375 -0.857143,0 -1.342245,-0.0747 -2.101562,-0.316407 -0.368013,-0.120853 -1.011936,-0.417979 -1.421875,-0.65039 l -0.21875,-0.125 -0.404297,0.240234 c -1.58851,0.934295 -3.344622,1.075127 -4.984375,0.396484 -0.377329,-0.153361 -0.928022,-0.456874 -0.974609,-0.53125 -0.01398,-0.02321 0.06203,-0.0505 0.173828,-0.06445 0.54969,-0.07902 1.400342,-0.464504 1.642578,-0.748047 0.326087,-0.376476 0.377753,-0.926073 0.130859,-1.376953 -0.31677,-0.576375 -0.996262,-0.765768 -1.648437,-0.458984 -0.740683,0.348619 -1.477012,0.362486 -2.236328,0.03711 -0.223604,-0.09761 -0.222488,-0.09716 -0.320313,-0.455078 -0.17702,-0.646105 -0.209703,-0.90245 -0.205078,-1.5625 0.0047,-0.980779 0.232628,-1.849409 0.703125,-2.658203 0.847826,-1.468843 2.272806,-2.473529 3.921875,-2.761719 0.554349,-0.09761 1.513404,-0.07034 2.095703,0.06445 l 0.490234,0.111328 0.511719,-0.515625 c 0.591615,-0.594975 1.075736,-0.953375 1.75586,-1.306641 0.717392,-0.371859 1.593895,-0.645319 2.367187,-0.738281 z m -67.59375,0.251953 -0.0098,29.933594 -0.01367,29.939453 -0.488282,0.222656 c -2.394411,1.101633 -4.649759,2.938102 -6.298828,5.136719 -1.523292,2.035927 -2.617103,4.550378 -3.041015,7 -0.852485,4.917835 0.455792,9.840786 3.632812,13.652346 1.467394,1.75703 3.502741,3.33832 5.566406,4.31445 0.456524,0.21382 0.516754,0.25502 0.884766,0.66406 1.159939,1.26897 3.023717,2.7425 4.630859,3.65821 4.919259,2.80288 10.812922,3.3782 16.19336,1.58398 1.909939,-0.63681 3.893317,-1.6629 5.449219,-2.82031 l 0.601562,-0.45117 0.595703,0.1582 c 1.267081,0.33467 2.413044,0.51221 3.75,0.57226 3.027951,0.13946 5.954239,-0.45556 8.632813,-1.76171 0.409937,-0.19988 0.959834,-0.4931 1.220703,-0.64649 l 0.474609,-0.2832 0.642578,0.43555 c 0.810559,0.54849 1.122587,0.73568 1.923828,1.16796 3.996898,2.15214 8.725796,2.87696 13.291016,2.04493 l 0.595703,-0.11133 0.708985,0.70508 c 1.928571,1.92437 3.963605,3.38474 6.390624,4.58398 2.795035,1.38518 5.60395,2.17572 8.673829,2.44531 1.029502,0.093 3.195862,0.0883 4.220702,0 4.62112,-0.40439 8.8274,-2.00903 12.46094,-4.74218 1.97982,-1.48744 3.77825,-3.35509 5.23633,-5.4375 0.57298,-0.82274 1.40181,-2.22192 1.81641,-3.0586 l 0.15429,-0.32031 0.7461,-0.35938 c 1.9472,-0.93893 3.51517,-2.04501 5.00586,-3.53711 2.1708,-2.1657 3.69514,-4.732034 4.54296,-7.646479 1.51864,-5.247861 0.55968,-10.983823 -2.58007,-15.404297 -2.82764,-3.978893 -7.02579,-6.609918 -11.83789,-7.414063 l -0.62891,-0.105469 -0.0273,-0.359374 c -0.0885,-1.050502 -0.75432,-1.994042 -1.69532,-2.398438 l -0.21093,-0.08789 0,-3.978515 0,-3.978516 0.30273,-0.34375 c 0.16304,-0.190579 0.39645,-0.492547 0.51758,-0.673828 0.20031,-0.29751 0.2327,-0.330622 0.33984,-0.302734 1.11802,0.288185 1.8443,0.371173 2.86914,0.333984 1.02485,-0.03719 1.81352,-0.189977 2.72657,-0.529297 4.90528,-1.826759 7.17233,-7.493794 4.87109,-12.169922 -0.58696,-1.189949 -1.10294,-1.834622 -2.44922,-3.066406 -0.13976,-0.13015 -0.37828,-0.382431 -0.52734,-0.568359 -0.30745,-0.385804 -0.90379,-0.877978 -1.31836,-1.091797 l -0.28321,-0.148438 -0.0273,-0.488281 c -0.0559,-0.901759 -0.36004,-2.058437 -0.7793,-2.964844 -0.82919,-1.789571 -2.37915,-3.35613 -4.16797,-4.220703 -2.70652,-1.306155 -5.99529,-1.148214 -8.49218,0.404297 l -0.33985,0.212891 -0.26562,-0.07422 c -0.41926,-0.12085 -1.73383,-0.102819 -2.20899,0.02734 -1.8354,0.50201 -3.18109,1.833007 -3.65625,3.613281 -0.10713,0.404397 -0.12232,0.557489 -0.12695,1.212891 l -0.004,0.751953 -0.30273,0.02344 c -0.70807,0.06508 -1.46278,0.456549 -2.00781,1.046875 -0.694187,0.748366 -1.020628,1.872071 -0.820318,2.820313 l 0.06641,0.322265 -0.228515,0.263672 c -1.136648,1.282914 -1.906214,3.076875 -2.087891,4.871094 -0.479814,4.764444 2.986724,9.087953 7.738284,9.650391 l 0.26562,0.0332 0.29688,0.380859 c 0.62888,0.799496 1.64087,1.50002 2.67968,1.867188 l 0.38672,0.134765 0,1.511719 0,1.509766 -0.43359,0.0059 c -0.47982,0 -0.73146,0.08298 -1.01563,0.333984 -0.22826,0.199875 -0.31211,0.409048 -0.75,1.896485 l -0.38671,1.30664 -0.16211,-0.04687 c -0.25156,-0.06973 -0.9131,-0.01464 -1.25782,0.101563 -1.05279,0.362561 -1.82661,1.335475 -1.89648,2.390625 l -0.0273,0.361328 -0.42382,-0.03711 c -0.23292,-0.01859 -1.00677,-0.03125 -1.71485,-0.03125 l -1.294918,0 0,-0.140626 c 0,-0.19054 0.09314,-1.422118 0.121094,-1.542968 0.01398,-0.08831 0.0551,-0.101763 0.451174,-0.125 0.66615,-0.03719 1.00251,-0.218847 1.21679,-0.646485 0.20031,-0.3951 0.1765,-0.557536 -0.39648,-3.207031 -0.56367,-2.616958 -0.60524,-2.737516 -1.005859,-3.109375 -0.116462,-0.102262 -0.326293,-0.247425 -0.470703,-0.3125 l -0.265625,-0.125 -2.376953,0 -2.375,0 -0.25586,0.121094 c -0.572981,0.264949 -0.829738,0.622377 -1.02539,1.421875 -0.293479,1.203892 -0.978516,4.49446 -0.978516,4.71289 0,0.422992 0.214164,0.781064 0.605469,0.990235 0.209626,0.11155 0.318289,0.139615 0.68164,0.158203 l 0.427735,0.02344 0.02734,0.259765 c 0.01398,0.144095 0.06038,0.697132 0.09766,1.236328 0.03726,0.534548 0.07977,1.031838 0.09375,1.101563 0.01398,0.09296 4.49e-4,0.130859 -0.05078,0.130859 -0.135094,0 -2.003482,0.64595 -2.623047,0.90625 -0.340063,0.144099 -0.633203,0.252231 -0.642578,0.238281 -0.01398,-0.01395 0.110838,-1.121034 0.283203,-2.455078 0.167702,-1.338691 0.308594,-2.472312 0.308594,-2.523437 0,-0.153393 -0.20925,-0.54946 -0.376954,-0.716797 -0.08851,-0.08831 -0.252678,-0.204733 -0.36914,-0.25586 -0.20031,-0.09295 -0.283215,-0.09766 -1.722656,-0.09766 -1.490685,0 -1.518281,-2.3e-4 -1.75586,0.111328 -0.293479,0.13015 -0.532731,0.378294 -0.644531,0.675782 -0.08385,0.218467 -0.08298,0.226838 0.140625,2.109375 0.24689,2.119596 0.316255,2.778876 0.292969,2.867187 -0.0094,0.04184 -0.171645,-0.0045 -0.572266,-0.171875 -2.250001,-0.924999 -4.648364,-1.421491 -7.261719,-1.509765 l -0.960937,-0.02734 0,-1.59961 0,-1.59375 -3.400391,0 -3.40039,0 -0.0098,2.277344 -0.01367,2.28125 -0.582031,0.246094 c -1.187889,0.502009 -2.190581,1.041712 -3.308594,1.771484 -0.871119,0.571734 -1.429674,0.994641 -2.240234,1.701172 -0.335404,0.288191 -0.627847,0.535672 -0.646485,0.544922 -0.01864,0.0092 -0.313033,-0.102736 -0.648437,-0.242188 -0.335404,-0.144058 -0.978575,-0.377389 -1.425781,-0.521484 l -0.814454,-0.259766 0,-8.617187 0,-8.619141 -1.724609,-0.0078 -1.722656,-0.01367 2.589843,-3.253906 c 1.425467,-1.789573 3.243232,-4.076801 4.035157,-5.076172 1.197206,-1.515327 1.470683,-1.831953 1.591797,-1.869141 0.08851,-0.0232 2.827261,-0.02762 6.376953,-0.01367 l 6.228515,0.02344 0,-1.498047 0,-1.490234 2.935547,0 2.935547,0 0,2.621093 c 0,3.021357 -0.01088,2.951825 0.431641,3.583985 0.135093,0.190577 1.281747,1.649794 2.548828,3.24414 1.267081,1.589698 2.455491,3.085948 2.646484,3.31836 l 0.339844,0.43164 -1.705078,0 -1.701172,0 0,2.208985 c 0,1.492085 0.01426,2.207031 0.04687,2.207031 0.02795,0 0.09764,-0.03117 0.158203,-0.06836 0.06056,-0.04184 0.224281,-0.112937 0.359375,-0.164063 l 0.251953,-0.08203 0.01367,-1.632813 0.0098,-1.630859 2.095703,0 c 1.15528,0 2.095703,-0.01339 2.095703,-0.02734 0,-0.12085 -0.945203,-1.335817 -5.240234,-6.732422 -0.66615,-0.836682 -1.272374,-1.626921 -1.351563,-1.761718 l -0.138672,-0.240235 -0.01367,-3.035156 -0.01367,-3.03125 -3.769531,0 -3.773437,0 0,1.46875 0,1.46875 -5.949219,-0.0098 c -4.090064,-0.0046 -6.004192,0.01037 -6.111328,0.04297 -0.302796,0.09296 -0.480034,0.263866 -1.160156,1.119141 -0.908388,1.152764 -5.282995,6.647752 -7.0625,8.878906 -0.782609,0.985426 -1.425782,1.803678 -1.425782,1.822266 0,0.02324 0.975423,0.03711 2.167969,0.03711 l 2.166016,0 0,8.101563 0,8.107421 -0.289063,-0.06641 c -1.332299,-0.278896 -3.326194,-0.403044 -4.705078,-0.300781 l -0.410156,0.03125 0,-29.060547 0,-29.064453 -15.349609,0 -15.34961,0 z m 0.792969,0.835937 14.533203,0 14.535156,0 0,28.69336 0,28.693359 -0.523437,0.08008 c -1.504659,0.23706 -3.482616,0.859755 -4.763672,1.50586 l -0.28125,0.144531 -0.720703,-0.363281 c -2.072981,-1.031909 -4.359932,-1.686692 -6.824219,-1.960938 -0.861801,-0.09296 -3.458062,-0.08074 -4.310547,0.02148 -1.253106,0.158041 -2.486547,0.414312 -3.646484,0.767579 -0.554349,0.167336 -0.583148,0.171953 -1.011719,0.134765 -0.642858,-0.05577 -2.532767,-0.0043 -3.212891,0.08398 -1.118013,0.144095 -2.301326,0.41896 -3.326172,0.767578 -0.23292,0.07437 -0.424218,0.138672 -0.433593,0.138672 -0.0093,0 -0.01367,-13.210186 -0.01367,-29.353516 l 0,-29.353516 z m 7.359375,4.369141 0,3.138672 0,3.136719 1.769531,0 1.771485,0 0,-3.136719 0,-3.138672 -1.771485,0 -1.769531,0 z m 5.404297,0 0,3.138672 0,3.136719 1.769531,0 1.769531,0 0,-3.136719 0,-3.138672 -1.769531,0 -1.769531,0 z m 5.449219,0 0,3.138672 0,3.136719 1.771484,0 1.769531,0 0,-3.136719 0,-3.138672 -1.769531,0 -1.771484,0 z m -10.060547,0.835938 0.953125,0 0.955078,0 0,2.302734 0,2.300781 -0.955078,0 -0.953125,0 0,-2.300781 0,-2.302734 z m 5.449218,0 0.931641,0 0.931641,0 0,2.302734 0,2.300781 -0.931641,0 -0.931641,0 0,-2.300781 0,-2.302734 z m 5.451172,0 0.931641,0 0.93164,0 0,2.302734 0,2.300781 -0.93164,0 -0.931641,0 0,-2.300781 0,-2.302734 z m 39.291016,4.189453 c 0.08327,5.78e-4 0.152706,0.02979 0.210937,0.08789 0.246895,0.246357 0.139814,0.501298 -0.302734,0.701172 -0.92236,0.418341 -1.956982,0.469635 -2.949219,0.158203 l -0.34375,-0.105468 -0.107422,0.236328 c -0.628882,1.417717 -0.662047,1.472656 -0.904297,1.472656 -0.204968,0 -0.288419,-0.100763 -0.498046,-0.607422 -0.107143,-0.264949 -0.2189,-0.488797 -0.242188,-0.498047 -0.02795,-0.0093 -0.157124,0.06012 -0.296875,0.148438 -0.596274,0.381155 -1.310668,0.581953 -2.205078,0.61914 -0.66615,0.02789 -1.588303,-0.07567 -1.779297,-0.201172 -0.214291,-0.134798 -0.186797,-0.446218 0.05078,-0.599609 0.102484,-0.06972 0.155607,-0.06989 0.365235,-0.02344 0.386646,0.08831 1.47092,0.11781 1.880859,0.05273 0.717391,-0.116205 1.309855,-0.387088 1.761719,-0.800781 0.400621,-0.362563 0.604521,-0.301187 0.828125,0.251953 0.06056,0.153396 0.131009,0.273437 0.154297,0.273437 0.02329,0 0.152768,-0.231341 0.283203,-0.519531 0.130435,-0.288191 0.275678,-0.554609 0.322265,-0.591797 0.125777,-0.08831 0.246773,-0.07453 0.605469,0.07422 0.927019,0.385799 2.059782,0.368772 2.875,-0.04492 0.111801,-0.05579 0.207748,-0.08456 0.291016,-0.08398 z m -50.984375,3.109375 0,3.136718 0,3.138672 1.769531,0 1.771485,0 0,-3.138672 0,-3.136718 -1.771485,0 -1.769531,0 z m 5.404297,0 0,3.136718 0,3.138672 1.769531,0 1.769531,0 0,-3.138672 0,-3.136718 -1.769531,0 -1.769531,0 z m 5.449219,0 0,3.136718 0,3.138672 1.771484,0 1.769531,0 0,-3.138672 0,-3.136718 -1.769531,0 -1.771484,0 z m -10.060547,0.835937 0.953125,0 0.955078,0 0,2.300781 0,2.300782 -0.955078,0 -0.953125,0 0,-2.300782 0,-2.300781 z m 5.449218,0 0.931641,0 0.931641,0 0,2.300781 0,2.300782 -0.931641,0 -0.931641,0 0,-2.300782 0,-2.300781 z m 5.451172,0 0.931641,0 0.93164,0 0,2.300781 0,2.300782 -0.93164,0 -0.931641,0 0,-2.300782 0,-2.300781 z m 69.476559,2.851563 c 1.59885,-0.01532 3.1723,0.452708 4.52149,1.351562 2.16149,1.445602 3.43221,3.703474 3.58594,6.38086 l 0.0332,0.5625 0.42969,0.208984 c 0.52174,0.251005 1.06514,0.678649 1.36328,1.064453 0.12112,0.162689 0.35087,0.409367 0.5,0.548828 1.37421,1.273616 1.77438,1.761998 2.30078,2.8125 1.51397,3.021354 0.95555,6.642449 -1.40625,9.078125 -1.20652,1.241079 -2.60002,2.003686 -4.29102,2.347656 -0.43323,0.08366 -0.66104,0.102282 -1.49023,0.09766 -1.1087,0 -1.49078,-0.0606 -2.51563,-0.390625 -0.30279,-0.10226 -0.55982,-0.1765 -0.56445,-0.171875 -0.005,0.0046 -0.0834,0.167313 -0.17187,0.367187 -0.22826,0.492714 -0.50368,0.887634 -0.9043,1.273438 l -0.33985,0.333984 0,5.560547 0,5.558594 -0.27539,0 c -0.28882,0 -1.14629,0.07461 -1.36523,0.121093 l -0.12891,0.02734 0,-9.021484 0,-9.023438 0.76368,0 c 2.55279,0 4.89531,-0.831895 6.20898,-2.203125 0.82919,-0.864572 1.25254,-1.816107 1.3457,-3.029297 l 0.0332,-0.390625 -0.81446,0 -0.8164,0 -0.0274,0.34375 c -0.0373,0.409045 -0.20864,0.979813 -0.40429,1.314453 -0.0745,0.130152 -0.25719,0.368595 -0.40625,0.53125 -0.84317,0.906407 -2.21315,1.510518 -3.94141,1.738282 -0.54503,0.06972 -1.72278,0.09679 -1.86719,0.04102 -0.0652,-0.02789 -0.0742,-0.41347 -0.0742,-3.904297 l 0,-3.876953 -0.79297,0 -0.79101,0 0,7.228516 c 0,3.974244 -0.0102,7.228516 -0.0195,7.228516 -0.0373,0 -0.59636,-0.335795 -1.07617,-0.642579 -0.48913,-0.316048 -1.35974,-0.947514 -1.79297,-1.300781 -0.43789,-0.362562 -1.64447,-1.594392 -1.94727,-1.99414 -0.88975,-1.171357 -1.36476,-2.319468 -1.47656,-3.560547 l -0.0332,-0.357422 -0.81055,0 -0.81055,0 0.0293,0.357422 c 0.0745,1.092335 0.32953,2.034923 0.80469,2.978515 1.10403,2.193969 3.48498,4.422218 6.45703,6.035157 l 0.66992,0.367187 0.006,5.697266 0,5.703125 -0.42969,0.107422 c -0.23758,0.05578 -0.68984,0.182428 -1.00195,0.27539 l -0.57227,0.175782 0,-5.494141 0,-5.494141 -0.33593,-0.08398 c -1.00622,-0.255653 -2.03398,-0.840419 -2.65821,-1.509766 -0.20963,-0.227764 -0.60649,-0.772936 -0.64844,-0.898437 -0.009,-0.01395 -0.23371,-0.0561 -0.5039,-0.08398 -2.95808,-0.320728 -5.40782,-2.095779 -6.595704,-4.787109 -0.475155,-1.073743 -0.647204,-1.933414 -0.642578,-3.207031 -10e-7,-0.794849 0.01786,-0.976234 0.125,-1.492188 0.312111,-1.487436 0.965502,-2.75712 2.013672,-3.923828 l 0.33398,-0.371094 -0.11523,-0.320312 c -0.31677,-0.915703 -0.0741,-1.882178 0.63867,-2.546875 0.65683,-0.613574 1.27939,-0.790853 2.29492,-0.632813 0.20031,0.02791 0.37344,0.04712 0.38282,0.0332 0.009,-0.0093 -0.0466,-0.252387 -0.1211,-0.53125 -0.12577,-0.455528 -0.14453,-0.581081 -0.14453,-1.16211 0,-0.576382 0.014,-0.696031 0.12109,-1.058594 0.32143,-1.045853 0.91299,-1.840376 1.80274,-2.412109 1.02018,-0.655401 2.21279,-0.808618 3.44726,-0.441406 l 0.20899,0.05859 0.41992,-0.273437 c 1.07609,-0.706533 2.36123,-1.162353 3.5957,-1.283203 0.22885,-0.02208 0.4591,-0.03297 0.6875,-0.03516 z m -47.199215,2.564453 c -0.464092,-0.0099 -0.912437,0.0015 -1.152344,0.04102 -0.680124,0.111563 -1.313338,0.359074 -1.634765,0.642578 -0.521774,0.455528 -0.517803,1.338651 0.0039,1.798829 0.246894,0.218466 0.43818,0.283203 0.796875,0.283203 0.26087,0 0.372683,-0.02899 0.689453,-0.177735 l 0.376953,-0.171875 0.722656,0 c 0.395964,0 0.894641,0.02922 1.09961,0.06641 l 0.380859,0.06055 0.05664,0.357421 c 0.07919,0.520603 0.135942,0.707119 0.261719,0.902344 0.354037,0.543845 1.158395,0.691702 1.689453,0.310547 0.102487,-0.07438 0.411454,-0.433102 0.68164,-0.791016 l 0.492188,-0.654296 0.265625,0.0332 c 0.531056,0.06043 1.152088,0.250204 1.673828,0.505859 0.31677,0.15804 0.613709,0.270507 0.74414,0.289062 0.470497,0.05113 0.968555,-0.209822 1.1875,-0.632812 0.256214,-0.483416 0.135749,-1.152397 -0.269531,-1.482422 -0.186335,-0.153391 -0.889179,-0.511609 -1.345703,-0.683594 -1.206521,-0.455526 -2.921166,-0.568306 -3.49414,-0.238281 l -0.201172,0.121094 -0.203125,-0.08789 c -0.256213,-0.1162 -1.007848,-0.302779 -1.576172,-0.40039 -0.302795,-0.05112 -0.782002,-0.08192 -1.246094,-0.0918 z m -0.408203,0.814453 c 0.66513,-0.0092 1.523618,0.08909 2.302734,0.277344 0.72205,0.176633 0.777025,0.219511 0.851563,0.679687 0.02795,0.176633 0.06535,0.338834 0.08398,0.357422 0.01863,0.02324 0.206388,-0.181574 0.416016,-0.451172 0.256211,-0.334674 0.4193,-0.502153 0.507812,-0.525391 0.256211,-0.07434 1.224658,-0.02804 1.732422,0.07422 0.913044,0.190578 2.026713,0.688448 2.115235,0.939453 0.06522,0.195227 3.5e-5,0.36165 -0.181641,0.445313 -0.158385,0.07437 -0.158857,0.07492 -0.638672,-0.162109 -0.801243,-0.399749 -1.397516,-0.558516 -2.25,-0.595704 L 70.785156,40.25 70.1875,41.042969 c -0.605591,0.808794 -0.731331,0.916172 -0.931641,0.841797 -0.186336,-0.07437 -0.232403,-0.179915 -0.353515,-0.900391 l -0.121094,-0.707031 -0.349609,-0.08008 c -1.309008,-0.306784 -2.580235,-0.292174 -3.292969,0.0332 -0.31677,0.1441 -0.465718,0.14847 -0.605469,0.01367 -0.125775,-0.116207 -0.140353,-0.296569 -0.0332,-0.445313 0.130435,-0.190577 0.708572,-0.428522 1.267578,-0.521484 0.168867,-0.02789 0.368134,-0.04187 0.589844,-0.04492 z m -33.5625,1.068359 0,3.136719 0,3.138672 1.769531,0 1.771485,0 0,-3.138672 0,-3.136719 -1.771485,0 -1.769531,0 z m 5.404297,0 0,3.136719 0,3.138672 1.769531,0 1.769531,0 0,-3.138672 0,-3.136719 -1.769531,0 -1.769531,0 z m 5.449219,0 0,3.136719 0,3.138672 1.771484,0 1.769531,0 0,-3.138672 0,-3.136719 -1.769531,0 -1.771484,0 z m -10.060547,0.835938 0.953125,0 0.955078,0 0,2.300781 0,2.300781 -0.955078,0 -0.953125,0 0,-2.300781 0,-2.300781 z m 5.449218,0 0.931641,0 0.931641,0 0,2.300781 0,2.300781 -0.931641,0 -0.931641,0 0,-2.300781 0,-2.300781 z m 5.451172,0 0.931641,0 0.93164,0 0,2.300781 0,2.300781 -0.93164,0 -0.931641,0 0,-2.300781 0,-2.300781 z m -11.693359,7.298828 0,3.136719 0,3.136718 1.769531,0 1.771485,0 0,-3.136718 0,-3.136719 -1.771485,0 -1.769531,0 z m 5.404297,0 0,3.136719 0,3.136718 1.769531,0 1.769531,0 0,-3.136718 0,-3.136719 -1.769531,0 -1.769531,0 z m 5.449219,0 0,3.136719 0,3.136718 1.771484,0 1.769531,0 0,-3.136718 0,-3.136719 -1.769531,0 -1.771484,0 z m -10.060547,0.835937 0.953125,0 0.955078,0 0,2.300782 0,2.300781 -0.955078,0 -0.953125,0 0,-2.300781 0,-2.300782 z m 5.449218,0 0.931641,0 0.931641,0 0,2.300782 0,2.300781 -0.931641,0 -0.931641,0 0,-2.300781 0,-2.300782 z m 5.451172,0 0.931641,0 0.93164,0 0,2.300782 0,2.300781 -0.93164,0 -0.931641,0 0,-2.300781 0,-2.300782 z m -11.693359,7.296875 0,3.138672 0,3.136719 1.769531,0 1.771485,0 0,-3.136719 0,-3.138672 -1.771485,0 -1.769531,0 z m 5.404297,0 0,3.138672 0,3.136719 1.769531,0 1.769531,0 0,-3.136719 0,-3.138672 -1.769531,0 -1.769531,0 z m 5.449219,0 0,3.138672 0,3.136719 1.771484,0 1.769531,0 0,-3.136719 0,-3.138672 -1.769531,0 -1.771484,0 z m -10.060547,0.837891 0.953125,0 0.955078,0 0,2.300781 0,2.300781 -0.955078,0 -0.953125,0 0,-2.300781 0,-2.300781 z m 5.449218,0 0.931641,0 0.931641,0 0,2.300781 0,2.300781 -0.931641,0 -0.931641,0 0,-2.300781 0,-2.300781 z m 5.451172,0 0.931641,0 0.93164,0 0,2.300781 0,2.300781 -0.93164,0 -0.931641,0 0,-2.300781 0,-2.300781 z m 52.244141,0.878906 c -0.299885,0 -0.599791,0.03695 -0.816406,0.111328 -0.638199,0.218467 -1.154237,0.649439 -1.457032,1.230469 -0.54969,1.041205 -0.373363,2.235855 0.451172,3.058594 0.521739,0.520601 1.103371,0.763672 1.830078,0.763672 0.72205,0 1.336739,-0.251896 1.839844,-0.753907 0.326089,-0.329986 0.549553,-0.710761 0.666016,-1.152343 0.08851,-0.334673 0.08851,-1.027124 0,-1.371094 -0.214287,-0.822738 -0.852144,-1.487201 -1.695313,-1.775391 -0.218944,-0.07438 -0.518477,-0.111328 -0.818359,-0.111328 z m -0.07031,0.798828 c 0.01398,-0.0046 0.15727,0.01778 0.320313,0.04102 0.568324,0.09296 1.034949,0.428148 1.314453,0.939453 0.15376,0.278895 0.158203,0.316426 0.158203,0.78125 0,0.432285 -0.0132,0.519542 -0.125,0.751953 -0.158385,0.34397 -0.522467,0.707195 -0.867187,0.865235 -0.228262,0.106902 -0.326997,0.125 -0.708985,0.125 -0.391305,0 -0.478921,-0.01392 -0.730468,-0.134766 -0.773293,-0.353266 -1.20167,-1.259861 -0.96875,-2.054687 0.186334,-0.655402 0.666633,-1.105163 1.328124,-1.253907 0.139753,-0.03254 0.265322,-0.06055 0.279297,-0.06055 z m -31.816406,1.017578 0,3.06836 0,3.068359 3.212891,0 3.214844,0 0,-3.068359 0,-3.06836 -3.214844,0 -3.212891,0 z m 13.042969,0 0,3.06836 0,3.068359 3.21289,0 3.214844,0 0,-3.068359 0,-3.06836 -3.214844,0 -3.21289,0 z m -12.205078,0.835938 2.375,0 2.376953,0 0,2.232422 0,2.230469 -2.376953,0 -2.375,0 0,-2.230469 0,-2.232422 z m 13.042968,0 2.375,0 2.376954,0 0,2.232422 0,2.230469 -2.376954,0 -2.375,0 0,-2.230469 0,-2.232422 z M 97.4668,64.367188 c 0.696429,0.0058 1.298427,0.02047 1.421875,0.03906 0.186335,0.02789 0.451897,0.250752 0.568359,0.478516 0.08851,0.176633 1.070306,4.625751 1.070306,4.853515 0,0.339323 -0.16644,0.404297 -1.046868,0.404297 l -0.66211,0 -0.02734,0.28711 c -0.01864,0.162665 -0.06625,0.730336 -0.103516,1.269531 -0.09783,1.255026 -0.08364,1.185547 -0.279297,1.185547 -0.400621,0 -2.00296,0.245165 -2.976562,0.458984 -0.563669,0.120863 -0.585938,0.126644 -0.585938,0.04297 0,-0.28819 -0.200716,-2.626887 -0.251953,-2.896485 l -0.05664,-0.324218 -0.675781,-0.02344 c -0.717392,-0.02324 -0.861615,-0.06602 -0.908203,-0.251953 -0.03261,-0.130151 -1.09e-4,-0.296865 0.544922,-2.792969 0.489131,-2.254395 0.481039,-2.21325 0.634765,-2.394531 0.232919,-0.278889 0.321611,-0.296331 1.341797,-0.324219 0.505436,-0.01394 1.295759,-0.01753 1.992188,-0.01172 z m -64.671875,0.335937 0,3.138672 0,3.136719 1.769531,0 1.771485,0 0,-3.136719 0,-3.138672 -1.771485,0 -1.769531,0 z m 5.404297,0 0,3.138672 0,3.136719 1.769531,0 1.769531,0 0,-3.136719 0,-3.138672 -1.769531,0 -1.769531,0 z m 5.449219,0 0,3.138672 0,3.136719 1.771484,0 1.769531,0 0,-3.136719 0,-3.138672 -1.769531,0 -1.771484,0 z m 45.107421,0.287109 c -0.107725,0.0018 -0.211882,0.01945 -0.363281,0.05664 -1.760869,0.436934 -1.830581,2.942015 -0.09766,3.476563 1.281056,0.390414 2.52408,-0.687713 2.314453,-2.007813 -0.06521,-0.385804 -0.186098,-0.632237 -0.460937,-0.929687 -0.26553,-0.297487 -0.60058,-0.47836 -1.00586,-0.552735 -0.167701,-0.03021 -0.278992,-0.04472 -0.386719,-0.04297 z m -55.167968,0.550782 0.953125,0 0.955078,0 0,2.300781 0,2.300781 -0.955078,0 -0.953125,0 0,-2.300781 0,-2.300781 z m 5.449218,0 0.931641,0 0.931641,0 0,2.300781 0,2.300781 -0.931641,0 -0.931641,0 0,-2.300781 0,-2.300781 z m 5.451172,0 0.931641,0 0.93164,0 0,2.300781 0,2.300781 -0.93164,0 -0.931641,0 0,-2.300781 0,-2.300781 z m 44.314453,0.291015 c 0.248059,-0.01046 0.449401,0.07668 0.666016,0.275391 0.372671,0.34397 0.423586,0.817714 0.134766,1.25 -0.14441,0.223116 -0.511512,0.414062 -0.791016,0.414062 -0.498447,-0.0046 -0.955078,-0.464044 -0.955078,-0.970703 0,-0.376506 0.330309,-0.832818 0.679687,-0.925781 0.0955,-0.0244 0.182939,-0.03948 0.265625,-0.04297 z m 19.667963,1.34961 0.32618,0.0078 0.0137,0.544922 0.0137,0.548828 -0.67578,0 -0.66992,0 0.11132,-0.380859 c 0.13044,-0.450879 0.19543,-0.553988 0.40039,-0.65625 0.10715,-0.05582 0.25221,-0.0737 0.48047,-0.06445 z m -0.25586,1.751953 0.60547,0 0,0.697265 c 0,0.381155 -0.0102,0.697266 -0.0195,0.697266 -0.0233,0 -1.19143,-1.338556 -1.1914,-1.371094 0,-0.01399 0.27472,-0.02344 0.60546,-0.02344 z m -1.04492,0.613281 c 0.0326,0.03254 0.41563,0.469436 0.85352,0.966797 l 0.79687,0.90625 0,1.333984 c 0,0.73907 -0.0153,1.339844 -0.0293,1.339844 -0.0186,0 -0.11041,-0.0241 -0.2129,-0.05664 -0.15371,-0.04648 -0.17758,-0.06941 -0.15429,-0.148437 0.14441,-0.506658 0.17701,-0.711656 0.18164,-1.074219 0.005,-0.469472 -0.0656,-0.799939 -0.25195,-1.208984 -0.24224,-0.539195 -0.74916,-1.078604 -1.23829,-1.320313 -0.15839,-0.07902 -0.20492,-0.125122 -0.18164,-0.185547 0.014,-0.04183 0.0643,-0.195006 0.10157,-0.34375 0.0605,-0.218421 0.0882,-0.255472 0.13476,-0.208984 z m -18.324214,0.08789 c 0.6283,0.0023 1.252839,0.01899 1.332031,0.04687 0.307449,0.10691 0.306993,0.08859 0.05078,1.882812 -0.125777,0.892461 -0.271029,2.099869 -0.322266,2.685547 -0.05124,0.585679 -0.09805,1.069594 -0.107422,1.074219 -0.0047,0.0046 -0.180245,0.103306 -0.394531,0.214843 l -0.382813,0.203126 -0.154296,-0.08789 c -0.07919,-0.04648 -0.362179,-0.200396 -0.623047,-0.339844 -0.265529,-0.139446 -0.480469,-0.269253 -0.480469,-0.283203 -0.0047,-0.246356 -0.180706,-1.942207 -0.34375,-3.332031 -0.204964,-1.719848 -0.210803,-1.77125 -0.126953,-1.882813 0.04658,-0.06042 0.13475,-0.130581 0.195312,-0.144531 0.0955,-0.02791 0.729122,-0.03943 1.357422,-0.03711 z m -16.78125,0.878906 2.585938,0 2.585937,0 0,1.203125 0,1.208984 -0.195312,0.02344 c -0.111802,0.01394 -0.56842,0.06534 -1.015625,0.121093 -1.029504,0.120856 -2.190607,0.353646 -3.1875,0.646485 l -0.773438,0.222656 0,-1.710937 0,-1.714844 z m 33.662104,0.117187 c 0.1415,-5.78e-4 0.25878,0.01313 0.28906,0.04102 0.009,0.01395 -0.12135,0.470301 -0.28906,1.023437 -0.1677,0.553141 -0.30664,1.058438 -0.30664,1.132813 0,0.269594 0.3676,0.41007 0.5586,0.214844 0.0512,-0.05113 0.21871,-0.525651 0.40039,-1.111328 0.1677,-0.562438 0.31679,-1.031766 0.32617,-1.041016 0.0373,-0.04184 0.43716,0.242001 0.63281,0.451172 0.4146,0.441582 0.62862,1.03104 0.58203,1.607422 -0.028,0.362562 -0.15758,0.771484 -0.24609,0.771484 -0.0326,0 -0.31724,-0.06989 -0.63867,-0.158203 -0.76398,-0.209171 -1.83576,-0.422584 -2.74414,-0.552734 l -0.73438,-0.101563 0,-0.164062 c 0,-0.09296 0.0311,-0.287546 0.0684,-0.431641 0.21429,-0.81809 0.86207,-1.455437 1.66797,-1.636719 0.12578,-0.0302 0.29209,-0.04434 0.43359,-0.04492 z m 10.16406,0.253907 c 0.0839,0 0.55481,0.373406 0.69922,0.554687 0.21895,0.274246 0.42021,0.724663 0.4668,1.054688 0.0187,0.153392 0.0328,0.300981 0.0234,0.324218 -0.014,0.04653 -0.76947,0.03867 -1.07227,-0.0078 l -0.15429,-0.02344 0,-0.949218 c 0,-0.525252 0.0185,-0.953125 0.0371,-0.953125 z m -15.25976,2.707031 c 2.51087,-0.02324 5.03468,0.36558 7.39648,1.146484 l 0.81641,0.269531 0.44141,-0.171874 c 3.33074,-1.310804 6.8991,-1.546683 10.31836,-0.691407 6.31211,1.585049 11.21726,6.568083 12.66601,12.871094 1.77485,7.725372 -1.97065,15.611866 -9.09765,19.144536 -0.34938,0.17198 -0.7671,0.37363 -0.93946,0.44336 l -0.30469,0.125 -0.29296,0.58984 c -1.14131,2.29623 -2.60826,4.32707 -4.42969,6.14453 -3.73603,3.73718 -8.5715,6.04397 -13.88672,6.625 -7.416184,0.80879 -14.753779,-1.95735 -19.859373,-7.49805 l -0.269531,-0.29296 -0.335937,0.0742 c -2.1941,0.50201 -4.499999,0.60851 -6.75,0.32032 -3.335405,-0.42764 -6.554008,-1.72345 -9.195313,-3.71289 -0.218945,-0.16734 -0.414212,-0.30274 -0.4375,-0.30274 -0.01863,0 -0.265418,0.14489 -0.544922,0.32617 -0.279504,0.17664 -0.79275,0.4679 -1.132812,0.64453 -3.889753,2.02664 -8.407813,2.48226 -12.595703,1.25977 l -0.638672,-0.18555 -0.400391,0.31641 c -2.622672,2.07311 -5.842025,3.44338 -9.191406,3.9082 -5.114909,0.71118 -10.374186,-0.73432 -14.431641,-3.96484 -0.684783,-0.54385 -1.504404,-1.30549 -2.021484,-1.86328 l -0.464844,-0.51172 -0.867187,-0.44141 c -1.686337,-0.86457 -2.868595,-1.70478 -4.09375,-2.91797 -2.557455,-2.53329 -4.090341,-5.629881 -4.607422,-9.306638 -0.116488,-0.832035 -0.112557,-3.030232 0.0039,-3.880859 0.493789,-3.588439 2.026542,-6.707021 4.523437,-9.203125 2.683233,-2.686682 6.05978,-4.267085 9.875,-4.625 0.6382,-0.06042 2.040142,-0.06042 2.650391,0 0.46118,0.04649 0.466093,0.04624 0.978516,-0.121094 1.108696,-0.357915 2.329665,-0.622937 3.638672,-0.794922 1.015528,-0.130155 3.494832,-0.11601 4.542968,0.02344 2.37112,0.320728 4.424191,0.948635 6.357422,1.943359 0.307454,0.15804 0.625135,0.324606 0.708985,0.371094 l 0.144531,0.08398 0.740234,-0.353516 c 0.801244,-0.390418 1.25808,-0.571653 2.175781,-0.86914 3.936338,-1.278265 8.487831,-0.994105 12.228516,0.767578 0.293479,0.139441 0.554081,0.25 0.582031,0.25 0.03261,0 0.138503,-0.08449 0.236329,-0.191406 0.102483,-0.102262 0.419716,-0.394269 0.699218,-0.640625 2.725158,-2.407788 5.874295,-3.960303 9.386719,-4.625 4.630437,-0.878518 9.423753,-0.04619 13.537109,2.347656 0.256212,0.153396 0.494732,0.273439 0.527344,0.273437 0.03261,0 0.217659,-0.09278 0.417969,-0.208984 0.559006,-0.320729 1.914669,-0.962551 2.636719,-1.246094 2.37112,-0.934296 4.683192,-1.441023 7.43164,-1.626953 0.116459,-0.0093 0.623847,-0.01686 1.126957,-0.02148 z m -57.261716,10.587891 0,8.808593 0,8.8086 1.490234,0 1.492187,0 0,-8.8086 0,-8.808593 -1.492187,0 -1.490234,0 z m 19.705078,0.138671 0,1.417969 0,1.417969 1.607422,0 1.607421,0 0,-1.417969 0,-1.417969 -1.607421,0 -1.607422,0 z m 32.189453,0 0,1.417969 0,1.417969 1.607422,0 1.607422,0 0,-1.417969 0,-1.417969 -1.607422,0 -1.607422,0 z m -60.117188,0.289063 c -1.942064,-0.01239 -3.673572,0.485795 -5.132812,1.486328 -1.93789,1.329396 -3.171633,3.259167 -3.632813,5.685547 -0.09783,0.511306 -0.136281,2.068815 -0.06641,2.677734 0.451864,3.946354 3.360246,6.97245 7.25,7.54883 0.610249,0.093 1.969515,0.10246 2.654297,0.0234 1.96584,-0.22777 3.564294,-0.99432 5.101562,-2.449223 l 0.488282,-0.464844 -0.949219,-0.986328 c -0.521739,-0.539195 -0.9689,-0.980469 -0.992187,-0.980468 -0.02329,-10e-7 -0.195725,0.134221 -0.386719,0.296874 -0.871119,0.757663 -1.785302,1.329543 -2.558594,1.589844 -1.029503,0.353273 -2.380349,0.38612 -3.423828,0.08398 -1.751554,-0.506659 -3.161842,-1.929571 -3.744141,-3.765625 -0.2236,-0.697237 -0.285156,-1.139096 -0.285156,-2.017578 0,-1.096986 0.148655,-1.83457 0.558594,-2.736329 0.381987,-0.827386 1.178485,-1.777286 1.923828,-2.279297 0.437889,-0.297453 1.193105,-0.639849 1.714844,-0.779296 0.419255,-0.111553 0.531238,-0.126948 1.341796,-0.126954 0.740685,10e-7 0.955757,0.01399 1.314454,0.09766 0.98292,0.232412 1.956521,0.758475 3,1.623047 0.349378,0.29284 0.431928,0.344093 0.478515,0.292968 0.03261,-0.03719 0.467149,-0.535688 0.960938,-1.107422 0.731372,-0.841297 0.888825,-1.050159 0.851562,-1.115234 -0.08385,-0.134799 -0.959336,-0.845756 -1.453125,-1.175781 -1.187888,-0.7902 -2.590728,-1.254614 -4.169922,-1.384766 -0.285908,-0.02266 -0.566312,-0.03534 -0.84375,-0.03711 z M 86.226562,84.625 c -0.08851,0.0093 -0.363232,0.04246 -0.605468,0.07031 -0.98292,0.111558 -2.137738,0.493376 -3.050782,1 -0.6941,0.385804 -1.146811,0.725339 -1.761718,1.320313 -1.486025,1.431658 -2.366242,3.230831 -2.589844,5.308594 -0.335405,3.072485 0.829324,6.042049 3.083984,7.859373 1.742237,1.40842 3.792046,2.03082 6.205078,1.88672 1.961182,-0.1162 3.373496,-0.62802 4.882813,-1.77148 0.391305,-0.29749 1.289059,-1.138054 1.289063,-1.203129 -10e-7,-0.05578 -1.862069,-1.947265 -1.917969,-1.947265 -0.02795,-10e-7 -0.16809,0.107388 -0.3125,0.242187 -0.624224,0.571734 -1.71397,1.290753 -2.324219,1.537109 -0.875777,0.35791 -2.049532,0.483939 -3.037109,0.339844 -2.063667,-0.311432 -3.746409,-1.794773 -4.421875,-3.90039 -0.223599,-0.701886 -0.298845,-1.213194 -0.298828,-2.03125 0,-1.129523 0.206485,-2.022267 0.68164,-2.947266 0.72205,-1.408417 2.025693,-2.462595 3.511719,-2.84375 0.875776,-0.223118 2.097025,-0.199755 2.996094,0.06055 0.875777,0.251005 1.844161,0.822067 2.785156,1.630859 0.17236,0.148744 0.31265,0.238081 0.335937,0.214844 0.02329,-0.02324 0.460234,-0.525649 0.972657,-1.111328 l 0.927734,-1.06836 -0.144531,-0.158203 C 93.1867,86.85298 92.330162,86.186824 91.90625,85.921875 90.872088,85.280417 89.813508,84.900774 88.537109,84.714844 88.047979,84.645119 86.561969,84.583162 86.226562,84.625 Z m 15.140628,0.902344 0,1.765625 0,1.767578 -0.81641,0 -0.814452,0 0,1.277344 0,1.279297 0.814452,0 0.81641,0 0,3.546874 c 0,4.229896 0.0139,4.391227 0.42383,5.232418 0.55434,1.12953 1.78374,1.68766 3.55859,1.61329 0.88509,-0.0372 1.48064,-0.17658 2.13281,-0.50196 l 0.26563,-0.1289 0,-1.21485 c 0,-1.134071 -0.004,-1.211479 -0.0781,-1.183591 -0.0466,0.01395 -0.26152,0.08773 -0.48047,0.162109 -0.51708,0.181278 -1.00712,0.255194 -1.45898,0.222656 -0.63354,-0.05113 -1.05089,-0.324903 -1.25586,-0.822265 -0.10249,-0.255653 -0.10321,-0.256315 -0.11719,-3.59375 l -0.0137,-3.332031 1.72852,0 1.72265,0 0,-1.279297 0,-1.277344 -1.72265,0 -1.72461,0 0,-1.767578 0,-1.765625 -1.49024,0 -1.49023,0 z m -25.294924,3.253906 -0.3125,0.0039 c -0.684784,0.01394 -1.314053,0.139424 -1.8125,0.367188 -0.857144,0.385804 -1.662303,1.195668 -2.19336,2.208984 l -0.197265,0.371094 -0.0039,-1.337891 0,-1.333984 -1.513672,0 -1.513671,0 0,6.367187 0,6.369142 1.513671,0 1.513672,0 0,-2.802735 c 0,-2.217211 0.01441,-2.891616 0.07031,-3.240235 0.218945,-1.431656 0.847158,-2.518698 1.830078,-3.160156 0.600932,-0.3951 1.495486,-0.652344 2.273437,-0.652344 l 0.345704,0 0,-1.580078 0,-1.580078 z M 54.21875,88.86133 c -0.664403,0.02034 -1.321331,0.08924 -1.859375,0.203125 -0.86646,0.18593 -2.541925,0.786875 -2.5,0.898438 0.0093,0.02789 0.194669,0.561941 0.404297,1.189453 0.214286,0.627512 0.391859,1.143812 0.396484,1.148437 0,0.0046 0.19046,-0.06598 0.414063,-0.154297 0.586957,-0.232412 1.462781,-0.477615 2.007812,-0.55664 0.642858,-0.09764 1.761173,-0.09836 2.236328,0.0039 0.535715,0.111559 1.103152,0.394116 1.419922,0.714844 0.43323,0.432286 0.694594,1.10624 0.699219,1.798828 l 0,0.289062 -0.380859,-0.111328 c -0.992237,-0.27424 -1.877474,-0.390625 -3.023438,-0.390625 -2.403727,0 -3.974742,0.700883 -4.808594,2.146485 -0.354038,0.613567 -0.535021,1.618045 -0.451171,2.505859 0.228259,2.421739 2.585948,3.891279 5.52539,3.458989 1.062113,-0.15804 1.983914,-0.61343 2.785156,-1.37109 l 0.353516,-0.33985 0,0.75391 0,0.74805 1.472656,0 1.466797,0 -0.01758,-4.267587 c -0.01398,-3.71859 -0.02854,-4.309858 -0.09375,-4.644531 -0.470496,-2.319471 -1.820748,-3.605522 -4.140625,-3.935547 -0.568323,-0.07902 -1.241847,-0.108226 -1.90625,-0.08789 z m 8.996094,0.199219 0,6.367187 0,6.369144 1.490234,0 1.490234,0 0,-6.369144 0,-6.367187 -1.490234,0 -1.490234,0 z m 32.142578,0 0,6.367187 0,6.369144 1.513672,0 1.513672,0 0,-6.369144 0,-6.367187 -1.513672,0 -1.513672,0 z m 23.123048,0 -1.625,4.648437 c -0.89441,2.556531 -1.64032,4.648438 -1.6543,4.648438 -0.014,0 -0.82495,-2.088063 -1.80273,-4.638672 l -1.7793,-4.634766 -1.58398,-0.01367 c -0.87578,-0.0047 -1.58789,-0.0014 -1.58789,0.0078 0,0.0093 1.1872,2.859797 2.64062,6.332031 1.44876,3.476882 2.63744,6.353903 2.63281,6.400393 -0.014,0.26495 -0.61517,1.07317 -0.91797,1.22656 -0.54969,0.28819 -1.28468,0.25123 -2.14648,-0.11133 -0.2236,-0.093 -0.41496,-0.14824 -0.43359,-0.125 -0.0838,0.0883 -0.97837,2.12297 -0.95508,2.16016 0.0792,0.1348 1.23801,0.56382 1.82031,0.67968 0.55435,0.10692 1.76087,0.10692 2.25,0 1.09938,-0.24601 1.9288,-0.95247 2.59961,-2.21679 0.31677,-0.59498 0.24748,-0.41481 3.09375,-7.763673 1.38354,-3.565199 2.52509,-6.512384 2.53906,-6.544922 0.0186,-0.04183 -0.30804,-0.05469 -1.5332,-0.05469 l -1.55664,0 z m -63.66797,6.94531 c 0.465839,0.0081 0.944208,0.03909 1.205078,0.08789 0.475155,0.08832 1.116848,0.250309 1.3125,0.333984 l 0.154297,0.06445 0,0.501953 c 0,0.302135 -0.02839,0.613913 -0.07031,0.78125 -0.274844,1.045853 -1.248678,1.799383 -2.599609,2.003906 -0.791926,0.120855 -1.453004,0.046 -2.058594,-0.242188 -0.43323,-0.199875 -0.731487,-0.468803 -0.894531,-0.798828 -0.121059,-0.241707 -0.130859,-0.312553 -0.130859,-0.777343 0,-0.450879 0.0147,-0.537665 0.117187,-0.742188 0.218945,-0.44623 0.739967,-0.856297 1.322266,-1.046875 0.09783,-0.03254 0.327337,-0.08391 0.513672,-0.121094 0.209627,-0.03951 0.663067,-0.05306 1.128906,-0.04492 z"
       transform="scale(0.8,0.79999992)"
       id="rect4258"
       inkscape:connector-curvature="0" />
  </g>
</svg>
