<?xml version="1.0" encoding="UTF-8" standalone="no"?>
<svg
   xmlns:dc="http://purl.org/dc/elements/1.1/"
   xmlns:cc="http://creativecommons.org/ns#"
   xmlns:rdf="http://www.w3.org/1999/02/22-rdf-syntax-ns#"
   xmlns:svg="http://www.w3.org/2000/svg"
   xmlns="http://www.w3.org/2000/svg"
   xmlns:sodipodi="http://sodipodi.sourceforge.net/DTD/sodipodi-0.dtd"
   xmlns:inkscape="http://www.inkscape.org/namespaces/inkscape"
   version="1.0"
   width="150.00008"
   height="138.74989"
   viewBox="0 0 120.00006 110.99991"
   preserveAspectRatio="xMidYMid meet"
   id="svg4125"
   inkscape:version="0.91 r13725"
   sodipodi:docname="logo_linework_blue.svg">
  <defs
     id="defs4209" />
  <sodipodi:namedview
     pagecolor="#ffffff"
     bordercolor="#666666"
     borderopacity="1"
     objecttolerance="20"
     gridtolerance="10"
     guidetolerance="10"
     inkscape:pageopacity="0"
     inkscape:pageshadow="2"
     inkscape:window-width="1680"
     inkscape:window-height="1026"
     id="namedview4207"
     showgrid="false"
     fit-margin-top="0"
     fit-margin-left="0"
     fit-margin-right="0"
     fit-margin-bottom="0"
     inkscape:zoom="4.0945947"
     inkscape:cx="4.5937724"
     inkscape:cy="60.715645"
     inkscape:window-x="0"
     inkscape:window-y="24"
     inkscape:window-maximized="1"
     inkscape:current-layer="layer2"
     inkscape:snap-others="true"
     inkscape:snap-object-midpoints="true"
     inkscape:snap-nodes="true"
     inkscape:object-paths="true"
     inkscape:snap-intersection-paths="true"
     inkscape:object-nodes="true"
     inkscape:snap-smooth-nodes="true" />
  <metadata
     id="metadata4127">
Created by potrace 1.11, written by Peter Selinger 2001-2013
<rdf:RDF>
  <cc:Work
     rdf:about="">
    <dc:format>image/svg+xml</dc:format>
    <dc:type
       rdf:resource="http://purl.org/dc/dcmitype/StillImage" />
    <dc:title></dc:title>
  </cc:Work>
</rdf:RDF>
</metadata>
  <g
     inkscape:groupmode="layer"
     id="layer1"
     inkscape:label="bg" />
  <g
     inkscape:groupmode="layer"
     id="layer2"
     inkscape:label="fg">
    <path
       style="opacity:1;fill:#003f6e;fill-opacity:1;stroke:none;stroke-width:0.35433072;stroke-linecap:round;stroke-miterlimit:4;stroke-dasharray:none;stroke-opacity:1"
       d="M 93.181641 17.732422 C 92.701243 17.719634 92.217161 17.732816 91.900391 17.779297 C 90.773061 17.937337 89.599342 18.393231 88.681641 19.025391 C 88.257727 19.313582 87.563276 19.908093 87.4375 20.080078 L 87.349609 20.201172 L 86.986328 20.136719 C 86.772043 20.099531 86.328962 20.070313 85.900391 20.070312 C 84.838278 20.065724 84.000182 20.2608 83.091797 20.707031 C 81.261051 21.618086 79.993013 23.301297 79.625 25.304688 C 79.5132 25.922867 79.522661 27.028579 79.648438 27.632812 C 79.699675 27.888466 79.756749 28.131992 79.775391 28.173828 C 79.794028 28.229603 79.746278 28.284741 79.587891 28.373047 C 79.471428 28.442772 79.350216 28.535544 79.322266 28.582031 C 79.280341 28.651706 79.219567 28.661166 78.912109 28.642578 C 78.436954 28.614691 78.26104 28.679003 77.902344 29.013672 C 77.236195 29.631864 76.275501 29.836124 74.980469 29.626953 C 74.54258 29.552578 74.491788 29.552578 74.240234 29.626953 C 73.364458 29.882607 73.081753 30.985496 73.724609 31.626953 C 74.064673 31.970923 74.640976 32.095703 75.884766 32.095703 C 76.769858 32.095703 77.175793 32.035153 77.865234 31.802734 L 78.238281 31.673828 L 78.376953 31.90625 C 78.581923 32.25022 78.875364 32.416959 79.308594 32.435547 C 79.960768 32.468084 80.291999 32.217193 80.636719 31.431641 C 80.743856 31.185284 80.846598 30.965853 80.865234 30.947266 C 80.879209 30.928666 81.032718 30.944049 81.205078 30.976562 C 81.470607 31.0277 81.549386 31.064537 81.763672 31.259766 C 82.290068 31.729238 83.147091 32.221182 83.869141 32.462891 C 85.494917 33.002087 87.280338 32.877075 88.822266 32.105469 L 89.230469 31.896484 L 89.650391 32.101562 C 90.861572 32.682594 92.272576 32.942372 93.572266 32.826172 C 94.229097 32.765747 94.694913 32.677571 95.193359 32.519531 L 95.525391 32.412109 L 95.916016 32.546875 C 97.923781 33.22087 100.2479 32.63455 101.72461 31.082031 C 102.8007 29.947861 103.34091 28.47958 103.26172 26.894531 C 103.18718 25.462875 102.62401 24.213276 101.58984 23.195312 C 101.22183 22.837434 100.52277 22.343626 100.10352 22.148438 C 99.85647 22.036875 99.828623 22.004008 99.595703 21.599609 C 98.463714 19.605515 96.665409 18.294629 94.443359 17.84375 C 94.138236 17.783325 93.662037 17.745197 93.181641 17.732422 z M 92.236328 18.574219 C 92.646266 18.523091 93.903908 18.588678 94.341797 18.681641 C 95.655462 18.965183 96.758673 19.564689 97.708984 20.517578 C 98.277308 21.089311 98.576996 21.494367 98.958984 22.214844 L 99.214844 22.693359 L 99.578125 22.851562 C 100.37005 23.195533 101.13827 23.840267 101.63672 24.583984 C 103.32306 27.094033 102.22909 30.519384 99.382812 31.658203 C 98.311386 32.085864 97.020951 32.086583 95.935547 31.654297 L 95.556641 31.505859 L 95.142578 31.650391 C 94.369286 31.910697 93.839419 31.994141 92.958984 31.994141 C 92.101841 31.994141 91.616739 31.919443 90.857422 31.677734 C 90.489409 31.556881 89.845486 31.259755 89.435547 31.027344 L 89.216797 30.902344 L 88.8125 31.142578 C 87.22399 32.076873 85.467878 32.217705 83.828125 31.539062 C 83.450796 31.385701 82.900103 31.082188 82.853516 31.007812 C 82.839541 30.984606 82.915544 30.957309 83.027344 30.943359 C 83.577034 30.864339 84.427686 30.478855 84.669922 30.195312 C 84.996009 29.818836 85.047675 29.269239 84.800781 28.818359 C 84.484011 28.241984 83.804519 28.052591 83.152344 28.359375 C 82.411661 28.707994 81.675332 28.721861 80.916016 28.396484 C 80.692412 28.298871 80.693528 28.29932 80.595703 27.941406 C 80.418683 27.295301 80.386 27.038956 80.390625 26.378906 C 80.395284 25.398127 80.623253 24.529497 81.09375 23.720703 C 81.941576 22.25186 83.366556 21.247174 85.015625 20.958984 C 85.569974 20.861371 86.529029 20.888639 87.111328 21.023438 L 87.601562 21.134766 L 88.113281 20.619141 C 88.704896 20.024166 89.189017 19.665766 89.869141 19.3125 C 90.586533 18.940641 91.463036 18.667181 92.236328 18.574219 z M 24.642578 18.826172 L 24.632812 48.759766 L 24.619141 78.699219 L 24.130859 78.921875 C 21.736448 80.023508 19.4811 81.859977 17.832031 84.058594 C 16.308739 86.094521 15.214928 88.608972 14.791016 91.058594 C 13.938531 95.976429 15.246808 100.89938 18.423828 104.71094 C 19.891222 106.46797 21.926569 108.04926 23.990234 109.02539 C 24.446758 109.23921 24.506988 109.28041 24.875 109.68945 C 26.034939 110.95842 27.898717 112.43195 29.505859 113.34766 C 34.425118 116.15054 40.318781 116.72586 45.699219 114.93164 C 47.609158 114.29483 49.592536 113.26874 51.148438 112.11133 L 51.75 111.66016 L 52.345703 111.81836 C 53.612784 112.15303 54.758747 112.33057 56.095703 112.39062 C 59.123654 112.53008 62.049942 111.93506 64.728516 110.62891 C 65.138453 110.42903 65.68835 110.13581 65.949219 109.98242 L 66.423828 109.69922 L 67.066406 110.13477 C 67.876965 110.68326 68.188993 110.87045 68.990234 111.30273 C 72.987132 113.45487 77.71603 114.17969 82.28125 113.34766 L 82.876953 113.23633 L 83.585938 113.94141 C 85.514509 115.86578 87.549543 117.32615 89.976562 118.52539 C 92.771597 119.91057 95.580512 120.70111 98.650391 120.9707 C 99.679893 121.06368 101.84625 121.05903 102.87109 120.9707 C 107.49221 120.56631 111.69849 118.96167 115.33203 116.22852 C 117.31185 114.74108 119.11028 112.87343 120.56836 110.79102 C 121.14134 109.96828 121.97017 108.5691 122.38477 107.73242 L 122.53906 107.41211 L 123.28516 107.05273 C 125.23236 106.1138 126.80033 105.00772 128.29102 103.51562 C 130.46182 101.34992 131.98616 98.783586 132.83398 95.869141 C 134.35262 90.62128 133.39366 84.885318 130.25391 80.464844 C 127.42627 76.485951 123.22812 73.854926 118.41602 73.050781 L 117.78711 72.945312 L 117.75977 72.585938 C 117.67125 71.535436 117.00545 70.591896 116.06445 70.1875 L 115.85352 70.099609 L 115.85352 66.121094 L 115.85352 62.142578 L 116.15625 61.798828 C 116.31929 61.608249 116.5527 61.306281 116.67383 61.125 C 116.87414 60.82749 116.90653 60.794378 117.01367 60.822266 C 118.13169 61.110451 118.85797 61.193439 119.88281 61.15625 C 120.90766 61.119062 121.69633 60.966273 122.60938 60.626953 C 127.51466 58.800194 129.78171 53.133159 127.48047 48.457031 C 126.89351 47.267082 126.37753 46.622409 125.03125 45.390625 C 124.89149 45.260475 124.65297 45.008194 124.50391 44.822266 C 124.19646 44.436462 123.60012 43.944288 123.18555 43.730469 L 122.90234 43.582031 L 122.875 43.09375 C 122.8191 42.191991 122.51496 41.035313 122.0957 40.128906 C 121.26651 38.339335 119.71655 36.772776 117.92773 35.908203 C 115.22121 34.602048 111.93244 34.759989 109.43555 36.3125 L 109.0957 36.525391 L 108.83008 36.451172 C 108.41082 36.330322 107.09625 36.348353 106.62109 36.478516 C 104.78569 36.980526 103.44 38.311523 102.96484 40.091797 C 102.85771 40.496194 102.84252 40.649286 102.83789 41.304688 L 102.83398 42.056641 L 102.53125 42.080078 C 101.82318 42.145153 101.06847 42.536627 100.52344 43.126953 C 99.829256 43.875319 99.502815 44.999024 99.703125 45.947266 L 99.769531 46.269531 L 99.541016 46.533203 C 98.404368 47.816117 97.634802 49.610078 97.453125 51.404297 C 96.973311 56.168741 100.43985 60.49225 105.19141 61.054688 L 105.45703 61.087891 L 105.75391 61.46875 C 106.38279 62.268246 107.39478 62.96877 108.43359 63.335938 L 108.82031 63.470703 L 108.82031 64.982422 L 108.82031 66.492188 L 108.38672 66.498047 C 107.9069 66.498047 107.65526 66.581022 107.37109 66.832031 C 107.14283 67.031906 107.05898 67.241079 106.62109 68.728516 L 106.23438 70.035156 L 106.07227 69.988281 C 105.82071 69.918556 105.15917 69.973644 104.81445 70.089844 C 103.76166 70.452405 102.98784 71.425319 102.91797 72.480469 L 102.89062 72.841797 L 102.4668 72.804688 C 102.23388 72.7861 101.46003 72.773437 100.75195 72.773438 L 99.457031 72.773438 L 99.457031 72.632812 C 99.457031 72.442272 99.550175 71.210694 99.578125 71.089844 C 99.5921 71.001531 99.633223 70.988081 100.0293 70.964844 C 100.69545 70.927656 101.03181 70.745997 101.24609 70.318359 C 101.4464 69.923259 101.42259 69.760823 100.84961 67.111328 C 100.28594 64.49437 100.24437 64.373812 99.84375 64.001953 C 99.727288 63.899691 99.517457 63.754528 99.373047 63.689453 L 99.107422 63.564453 L 96.730469 63.564453 L 94.355469 63.564453 L 94.099609 63.685547 C 93.526628 63.950496 93.269871 64.307924 93.074219 65.107422 C 92.78074 66.311314 92.095703 69.601882 92.095703 69.820312 C 92.095703 70.243304 92.309867 70.601376 92.701172 70.810547 C 92.910798 70.922097 93.019461 70.950162 93.382812 70.96875 L 93.810547 70.992188 L 93.837891 71.251953 C 93.851866 71.396048 93.898272 71.949085 93.935547 72.488281 C 93.972809 73.022829 94.015322 73.520119 94.029297 73.589844 C 94.043272 73.682806 94.029746 73.720703 93.978516 73.720703 C 93.843422 73.720703 91.975034 74.366653 91.355469 74.626953 C 91.015406 74.771052 90.722266 74.879184 90.712891 74.865234 C 90.698916 74.851284 90.823729 73.7442 90.996094 72.410156 C 91.163796 71.071465 91.304688 69.937844 91.304688 69.886719 C 91.304688 69.733326 91.095438 69.337259 90.927734 69.169922 C 90.839222 69.081609 90.675056 68.965189 90.558594 68.914062 C 90.358284 68.821112 90.275379 68.816406 88.835938 68.816406 C 87.345253 68.816406 87.317657 68.816176 87.080078 68.927734 C 86.786599 69.057884 86.547347 69.306028 86.435547 69.603516 C 86.351697 69.821983 86.352572 69.830354 86.576172 71.712891 C 86.823062 73.832487 86.892427 74.491767 86.869141 74.580078 C 86.859766 74.621916 86.697496 74.575578 86.296875 74.408203 C 84.046874 73.483204 81.648511 72.986712 79.035156 72.898438 L 78.074219 72.871094 L 78.074219 71.271484 L 78.074219 69.677734 L 74.673828 69.677734 L 71.273438 69.677734 L 71.263672 71.955078 L 71.25 74.236328 L 70.667969 74.482422 C 69.48008 74.984431 68.477388 75.524134 67.359375 76.253906 C 66.488256 76.82564 65.929701 77.248547 65.119141 77.955078 C 64.783737 78.243269 64.491294 78.49075 64.472656 78.5 C 64.454019 78.50925 64.159623 78.397264 63.824219 78.257812 C 63.488815 78.113754 62.845644 77.880423 62.398438 77.736328 L 61.583984 77.476562 L 61.583984 68.859375 L 61.583984 60.240234 L 59.859375 60.232422 L 58.136719 60.21875 L 60.726562 56.964844 C 62.152029 55.175271 63.969794 52.888043 64.761719 51.888672 C 65.958925 50.373345 66.232402 50.056719 66.353516 50.019531 C 66.442028 49.996331 69.180777 49.991909 72.730469 50.005859 L 78.958984 50.029297 L 78.958984 48.53125 L 78.958984 47.041016 L 81.894531 47.041016 L 84.830078 47.041016 L 84.830078 49.662109 C 84.830078 52.683466 84.819202 52.613934 85.261719 53.246094 C 85.396812 53.436671 86.543466 54.895888 87.810547 56.490234 C 89.077628 58.079932 90.266038 59.576182 90.457031 59.808594 L 90.796875 60.240234 L 89.091797 60.240234 L 87.390625 60.240234 L 87.390625 62.449219 C 87.390625 63.941304 87.404887 64.65625 87.4375 64.65625 C 87.46545 64.65625 87.535138 64.625078 87.595703 64.587891 C 87.656266 64.546053 87.819984 64.474954 87.955078 64.423828 L 88.207031 64.341797 L 88.220703 62.708984 L 88.230469 61.078125 L 90.326172 61.078125 C 91.481452 61.078125 92.421875 61.064731 92.421875 61.050781 C 92.421875 60.929931 91.476672 59.714964 87.181641 54.318359 C 86.515491 53.481677 85.909267 52.691438 85.830078 52.556641 L 85.691406 52.316406 L 85.677734 49.28125 L 85.664062 46.25 L 81.894531 46.25 L 78.121094 46.25 L 78.121094 47.71875 L 78.121094 49.1875 L 72.171875 49.177734 C 68.081811 49.173109 66.167683 49.188103 66.060547 49.220703 C 65.757751 49.313666 65.580513 49.484569 64.900391 50.339844 C 63.992003 51.492608 59.617396 56.987596 57.837891 59.21875 C 57.055282 60.204176 56.412109 61.022428 56.412109 61.041016 C 56.412109 61.064253 57.387532 61.078125 58.580078 61.078125 L 60.746094 61.078125 L 60.746094 69.179688 L 60.746094 77.287109 L 60.457031 77.220703 C 59.124732 76.941807 57.130837 76.817659 55.751953 76.919922 L 55.341797 76.951172 L 55.341797 47.890625 L 55.341797 18.826172 L 39.992188 18.826172 L 24.642578 18.826172 z M 25.435547 19.662109 L 39.96875 19.662109 L 54.503906 19.662109 L 54.503906 48.355469 L 54.503906 77.048828 L 53.980469 77.128906 C 52.47581 77.365966 50.497853 77.988661 49.216797 78.634766 L 48.935547 78.779297 L 48.214844 78.416016 C 46.141863 77.384107 43.854912 76.729324 41.390625 76.455078 C 40.528824 76.362116 37.932563 76.374337 37.080078 76.476562 C 35.826972 76.634603 34.593531 76.890874 33.433594 77.244141 C 32.879245 77.411477 32.850446 77.416094 32.421875 77.378906 C 31.779017 77.323134 29.889108 77.374578 29.208984 77.462891 C 28.090971 77.606986 26.907658 77.881851 25.882812 78.230469 C 25.649892 78.304841 25.458594 78.369141 25.449219 78.369141 C 25.439869 78.369141 25.435547 65.158955 25.435547 49.015625 L 25.435547 19.662109 z M 32.794922 24.03125 L 32.794922 27.169922 L 32.794922 30.306641 L 34.564453 30.306641 L 36.335938 30.306641 L 36.335938 27.169922 L 36.335938 24.03125 L 34.564453 24.03125 L 32.794922 24.03125 z M 38.199219 24.03125 L 38.199219 27.169922 L 38.199219 30.306641 L 39.96875 30.306641 L 41.738281 30.306641 L 41.738281 27.169922 L 41.738281 24.03125 L 39.96875 24.03125 L 38.199219 24.03125 z M 43.648438 24.03125 L 43.648438 27.169922 L 43.648438 30.306641 L 45.419922 30.306641 L 47.189453 30.306641 L 47.189453 27.169922 L 47.189453 24.03125 L 45.419922 24.03125 L 43.648438 24.03125 z M 33.587891 24.867188 L 34.541016 24.867188 L 35.496094 24.867188 L 35.496094 27.169922 L 35.496094 29.470703 L 34.541016 29.470703 L 33.587891 29.470703 L 33.587891 27.169922 L 33.587891 24.867188 z M 39.037109 24.867188 L 39.96875 24.867188 L 40.900391 24.867188 L 40.900391 27.169922 L 40.900391 29.470703 L 39.96875 29.470703 L 39.037109 29.470703 L 39.037109 27.169922 L 39.037109 24.867188 z M 44.488281 24.867188 L 45.419922 24.867188 L 46.351562 24.867188 L 46.351562 27.169922 L 46.351562 29.470703 L 45.419922 29.470703 L 44.488281 29.470703 L 44.488281 27.169922 L 44.488281 24.867188 z M 83.779297 29.056641 C 83.862565 29.057219 83.932003 29.086431 83.990234 29.144531 C 84.237129 29.390888 84.130048 29.645829 83.6875 29.845703 C 82.76514 30.264044 81.730518 30.315338 80.738281 30.003906 L 80.394531 29.898438 L 80.287109 30.134766 C 79.658227 31.552483 79.625062 31.607422 79.382812 31.607422 C 79.177844 31.607422 79.094393 31.506659 78.884766 31 C 78.777623 30.735051 78.665866 30.511203 78.642578 30.501953 C 78.614628 30.492657 78.485454 30.562078 78.345703 30.650391 C 77.749429 31.031546 77.035035 31.232344 76.140625 31.269531 C 75.474475 31.297421 74.552322 31.193862 74.361328 31.068359 C 74.147037 30.933561 74.174531 30.622141 74.412109 30.46875 C 74.514593 30.399025 74.567716 30.398855 74.777344 30.445312 C 75.16399 30.533625 76.248264 30.563122 76.658203 30.498047 C 77.375594 30.381842 77.968058 30.110959 78.419922 29.697266 C 78.820543 29.334703 79.024443 29.396079 79.248047 29.949219 C 79.308611 30.102615 79.379056 30.222656 79.402344 30.222656 C 79.425635 30.222656 79.555112 29.991315 79.685547 29.703125 C 79.815982 29.414934 79.961225 29.148516 80.007812 29.111328 C 80.133589 29.023014 80.254585 29.036803 80.613281 29.185547 C 81.5403 29.571346 82.673063 29.554319 83.488281 29.140625 C 83.600082 29.084837 83.696029 29.056062 83.779297 29.056641 z M 32.794922 32.166016 L 32.794922 35.302734 L 32.794922 38.441406 L 34.564453 38.441406 L 36.335938 38.441406 L 36.335938 35.302734 L 36.335938 32.166016 L 34.564453 32.166016 L 32.794922 32.166016 z M 38.199219 32.166016 L 38.199219 35.302734 L 38.199219 38.441406 L 39.96875 38.441406 L 41.738281 38.441406 L 41.738281 35.302734 L 41.738281 32.166016 L 39.96875 32.166016 L 38.199219 32.166016 z M 43.648438 32.166016 L 43.648438 35.302734 L 43.648438 38.441406 L 45.419922 38.441406 L 47.189453 38.441406 L 47.189453 35.302734 L 47.189453 32.166016 L 45.419922 32.166016 L 43.648438 32.166016 z M 33.587891 33.001953 L 34.541016 33.001953 L 35.496094 33.001953 L 35.496094 35.302734 L 35.496094 37.603516 L 34.541016 37.603516 L 33.587891 37.603516 L 33.587891 35.302734 L 33.587891 33.001953 z M 39.037109 33.001953 L 39.96875 33.001953 L 40.900391 33.001953 L 40.900391 35.302734 L 40.900391 37.603516 L 39.96875 37.603516 L 39.037109 37.603516 L 39.037109 35.302734 L 39.037109 33.001953 z M 44.488281 33.001953 L 45.419922 33.001953 L 46.351562 33.001953 L 46.351562 35.302734 L 46.351562 37.603516 L 45.419922 37.603516 L 44.488281 37.603516 L 44.488281 35.302734 L 44.488281 33.001953 z M 113.96484 35.853516 C 115.56369 35.8382 117.13714 36.306224 118.48633 37.205078 C 120.64782 38.65068 121.91854 40.908552 122.07227 43.585938 L 122.10547 44.148438 L 122.53516 44.357422 C 123.0569 44.608427 123.6003 45.036071 123.89844 45.421875 C 124.01956 45.584564 124.24931 45.831242 124.39844 45.970703 C 125.77265 47.244319 126.17282 47.732701 126.69922 48.783203 C 128.21319 51.804557 127.65477 55.425652 125.29297 57.861328 C 124.08645 59.102407 122.69295 59.865014 121.00195 60.208984 C 120.56872 60.292647 120.34091 60.311266 119.51172 60.306641 C 118.40302 60.306641 118.02094 60.246039 116.99609 59.916016 C 116.6933 59.813756 116.43627 59.739516 116.43164 59.744141 C 116.42698 59.748788 116.34828 59.911454 116.25977 60.111328 C 116.03151 60.604042 115.75609 60.998962 115.35547 61.384766 L 115.01562 61.71875 L 115.01562 67.279297 L 115.01562 72.837891 L 114.74023 72.837891 C 114.45141 72.837891 113.59394 72.912497 113.375 72.958984 L 113.24609 72.986328 L 113.24609 63.964844 L 113.24609 54.941406 L 114.00977 54.941406 C 116.56256 54.941406 118.90508 54.109511 120.21875 52.738281 C 121.04794 51.873709 121.47129 50.922174 121.56445 49.708984 L 121.59766 49.318359 L 120.7832 49.318359 L 119.9668 49.318359 L 119.93945 49.662109 C 119.90219 50.071154 119.73081 50.641922 119.53516 50.976562 C 119.46062 51.106714 119.27797 51.345157 119.12891 51.507812 C 118.28574 52.414219 116.91576 53.01833 115.1875 53.246094 C 114.64247 53.315819 113.46472 53.342884 113.32031 53.287109 C 113.25515 53.259221 113.24609 52.873639 113.24609 49.382812 L 113.24609 45.505859 L 112.45312 45.505859 L 111.66211 45.505859 L 111.66211 52.734375 C 111.66211 56.708619 111.65195 59.962891 111.64258 59.962891 C 111.60531 59.962891 111.04622 59.627096 110.56641 59.320312 C 110.07728 59.004264 109.20667 58.372798 108.77344 58.019531 C 108.33555 57.656969 107.12897 56.425139 106.82617 56.025391 C 105.93642 54.854034 105.46141 53.705923 105.34961 52.464844 L 105.31641 52.107422 L 104.50586 52.107422 L 103.69531 52.107422 L 103.72461 52.464844 C 103.79914 53.557179 104.05414 54.499767 104.5293 55.443359 C 105.63333 57.637328 108.01428 59.865577 110.98633 61.478516 L 111.65625 61.845703 L 111.66211 67.542969 L 111.66211 73.246094 L 111.23242 73.353516 C 110.99484 73.409294 110.54258 73.535944 110.23047 73.628906 L 109.6582 73.804688 L 109.6582 68.310547 L 109.6582 62.816406 L 109.32227 62.732422 C 108.31605 62.476769 107.28829 61.892003 106.66406 61.222656 C 106.45443 60.994892 106.05757 60.44972 106.01562 60.324219 C 106.00634 60.310269 105.78191 60.268122 105.51172 60.240234 C 102.55364 59.919506 100.1039 58.144455 98.916016 55.453125 C 98.440861 54.379382 98.268812 53.519711 98.273438 52.246094 C 98.273437 51.451245 98.291297 51.26986 98.398438 50.753906 C 98.710549 49.26647 99.36394 47.996786 100.41211 46.830078 L 100.74609 46.458984 L 100.63086 46.138672 C 100.31409 45.222969 100.5568 44.256494 101.26953 43.591797 C 101.92636 42.978223 102.54892 42.800944 103.56445 42.958984 C 103.76476 42.986897 103.93789 43.006106 103.94727 42.992188 C 103.95658 42.982891 103.90071 42.739801 103.82617 42.460938 C 103.7004 42.00541 103.68164 41.879857 103.68164 41.298828 C 103.68164 40.722446 103.6956 40.602797 103.80273 40.240234 C 104.12416 39.194381 104.71572 38.399858 105.60547 37.828125 C 106.62565 37.172724 107.81826 37.019507 109.05273 37.386719 L 109.26172 37.445312 L 109.68164 37.171875 C 110.75773 36.465342 112.04287 36.009522 113.27734 35.888672 C 113.50619 35.866593 113.73644 35.855704 113.96484 35.853516 z M 66.765625 38.417969 C 66.301533 38.408094 65.853188 38.419472 65.613281 38.458984 C 64.933157 38.570547 64.299943 38.818058 63.978516 39.101562 C 63.456742 39.55709 63.460713 40.440213 63.982422 40.900391 C 64.229316 41.118857 64.420602 41.183594 64.779297 41.183594 C 65.040167 41.183594 65.15198 41.154607 65.46875 41.005859 L 65.845703 40.833984 L 66.568359 40.833984 C 66.964323 40.833984 67.463 40.863203 67.667969 40.900391 L 68.048828 40.960938 L 68.105469 41.318359 C 68.184656 41.838962 68.241411 42.025478 68.367188 42.220703 C 68.721225 42.764548 69.525583 42.912405 70.056641 42.53125 C 70.159128 42.456875 70.468095 42.098148 70.738281 41.740234 L 71.230469 41.085938 L 71.496094 41.119141 C 72.02715 41.179566 72.648182 41.369345 73.169922 41.625 C 73.486692 41.78304 73.783631 41.895507 73.914062 41.914062 C 74.384559 41.965188 74.882617 41.70424 75.101562 41.28125 C 75.357776 40.797834 75.237311 40.128853 74.832031 39.798828 C 74.645696 39.645437 73.942852 39.287219 73.486328 39.115234 C 72.279807 38.659708 70.565162 38.546928 69.992188 38.876953 L 69.791016 38.998047 L 69.587891 38.910156 C 69.331678 38.793956 68.580043 38.607377 68.011719 38.509766 C 67.708924 38.458641 67.229717 38.427844 66.765625 38.417969 z M 66.357422 39.232422 C 67.022552 39.223271 67.88104 39.321513 68.660156 39.509766 C 69.382206 39.686399 69.437181 39.729277 69.511719 40.189453 C 69.539669 40.366086 69.577066 40.528287 69.595703 40.546875 C 69.614337 40.570116 69.802091 40.365301 70.011719 40.095703 C 70.26793 39.761029 70.431019 39.59355 70.519531 39.570312 C 70.775742 39.495973 71.744189 39.542269 72.251953 39.644531 C 73.164997 39.835109 74.278666 40.332979 74.367188 40.583984 C 74.432405 40.779211 74.367223 40.945634 74.185547 41.029297 C 74.027162 41.103669 74.02669 41.104219 73.546875 40.867188 C 72.745632 40.467439 72.149359 40.308672 71.296875 40.271484 L 70.785156 40.25 L 70.1875 41.042969 C 69.581909 41.851763 69.456169 41.959141 69.255859 41.884766 C 69.069523 41.810394 69.023456 41.704851 68.902344 40.984375 L 68.78125 40.277344 L 68.431641 40.197266 C 67.122633 39.890482 65.851406 39.905092 65.138672 40.230469 C 64.821902 40.374569 64.672954 40.378939 64.533203 40.244141 C 64.407428 40.127934 64.39285 39.947572 64.5 39.798828 C 64.630435 39.608251 65.208572 39.370306 65.767578 39.277344 C 65.936445 39.249454 66.135712 39.235472 66.357422 39.232422 z M 32.794922 40.300781 L 32.794922 43.4375 L 32.794922 46.576172 L 34.564453 46.576172 L 36.335938 46.576172 L 36.335938 43.4375 L 36.335938 40.300781 L 34.564453 40.300781 L 32.794922 40.300781 z M 38.199219 40.300781 L 38.199219 43.4375 L 38.199219 46.576172 L 39.96875 46.576172 L 41.738281 46.576172 L 41.738281 43.4375 L 41.738281 40.300781 L 39.96875 40.300781 L 38.199219 40.300781 z M 43.648438 40.300781 L 43.648438 43.4375 L 43.648438 46.576172 L 45.419922 46.576172 L 47.189453 46.576172 L 47.189453 43.4375 L 47.189453 40.300781 L 45.419922 40.300781 L 43.648438 40.300781 z M 33.587891 41.136719 L 34.541016 41.136719 L 35.496094 41.136719 L 35.496094 43.4375 L 35.496094 45.738281 L 34.541016 45.738281 L 33.587891 45.738281 L 33.587891 43.4375 L 33.587891 41.136719 z M 39.037109 41.136719 L 39.96875 41.136719 L 40.900391 41.136719 L 40.900391 43.4375 L 40.900391 45.738281 L 39.96875 45.738281 L 39.037109 45.738281 L 39.037109 43.4375 L 39.037109 41.136719 z M 44.488281 41.136719 L 45.419922 41.136719 L 46.351562 41.136719 L 46.351562 43.4375 L 46.351562 45.738281 L 45.419922 45.738281 L 44.488281 45.738281 L 44.488281 43.4375 L 44.488281 41.136719 z M 32.794922 48.435547 L 32.794922 51.572266 L 32.794922 54.708984 L 34.564453 54.708984 L 36.335938 54.708984 L 36.335938 51.572266 L 36.335938 48.435547 L 34.564453 48.435547 L 32.794922 48.435547 z M 38.199219 48.435547 L 38.199219 51.572266 L 38.199219 54.708984 L 39.96875 54.708984 L 41.738281 54.708984 L 41.738281 51.572266 L 41.738281 48.435547 L 39.96875 48.435547 L 38.199219 48.435547 z M 43.648438 48.435547 L 43.648438 51.572266 L 43.648438 54.708984 L 45.419922 54.708984 L 47.189453 54.708984 L 47.189453 51.572266 L 47.189453 48.435547 L 45.419922 48.435547 L 43.648438 48.435547 z M 33.587891 49.271484 L 34.541016 49.271484 L 35.496094 49.271484 L 35.496094 51.572266 L 35.496094 53.873047 L 34.541016 53.873047 L 33.587891 53.873047 L 33.587891 51.572266 L 33.587891 49.271484 z M 39.037109 49.271484 L 39.96875 49.271484 L 40.900391 49.271484 L 40.900391 51.572266 L 40.900391 53.873047 L 39.96875 53.873047 L 39.037109 53.873047 L 39.037109 51.572266 L 39.037109 49.271484 z M 44.488281 49.271484 L 45.419922 49.271484 L 46.351562 49.271484 L 46.351562 51.572266 L 46.351562 53.873047 L 45.419922 53.873047 L 44.488281 53.873047 L 44.488281 51.572266 L 44.488281 49.271484 z M 32.794922 56.568359 L 32.794922 59.707031 L 32.794922 62.84375 L 34.564453 62.84375 L 36.335938 62.84375 L 36.335938 59.707031 L 36.335938 56.568359 L 34.564453 56.568359 L 32.794922 56.568359 z M 38.199219 56.568359 L 38.199219 59.707031 L 38.199219 62.84375 L 39.96875 62.84375 L 41.738281 62.84375 L 41.738281 59.707031 L 41.738281 56.568359 L 39.96875 56.568359 L 38.199219 56.568359 z M 43.648438 56.568359 L 43.648438 59.707031 L 43.648438 62.84375 L 45.419922 62.84375 L 47.189453 62.84375 L 47.189453 59.707031 L 47.189453 56.568359 L 45.419922 56.568359 L 43.648438 56.568359 z M 33.587891 57.40625 L 34.541016 57.40625 L 35.496094 57.40625 L 35.496094 59.707031 L 35.496094 62.007812 L 34.541016 62.007812 L 33.587891 62.007812 L 33.587891 59.707031 L 33.587891 57.40625 z M 39.037109 57.40625 L 39.96875 57.40625 L 40.900391 57.40625 L 40.900391 59.707031 L 40.900391 62.007812 L 39.96875 62.007812 L 39.037109 62.007812 L 39.037109 59.707031 L 39.037109 57.40625 z M 44.488281 57.40625 L 45.419922 57.40625 L 46.351562 57.40625 L 46.351562 59.707031 L 46.351562 62.007812 L 45.419922 62.007812 L 44.488281 62.007812 L 44.488281 59.707031 L 44.488281 57.40625 z M 96.732422 58.285156 C 96.432537 58.285156 96.132631 58.322109 95.916016 58.396484 C 95.277817 58.614951 94.761779 59.045923 94.458984 59.626953 C 93.909294 60.668158 94.085621 61.862808 94.910156 62.685547 C 95.431895 63.206148 96.013527 63.449219 96.740234 63.449219 C 97.462284 63.449219 98.076973 63.197323 98.580078 62.695312 C 98.906167 62.365326 99.129631 61.984551 99.246094 61.542969 C 99.334606 61.208296 99.334606 60.515845 99.246094 60.171875 C 99.031807 59.349137 98.39395 58.684674 97.550781 58.396484 C 97.331837 58.322109 97.032304 58.285156 96.732422 58.285156 z M 96.662109 59.083984 C 96.676084 59.079334 96.819379 59.101762 96.982422 59.125 C 97.550746 59.217965 98.017371 59.553148 98.296875 60.064453 C 98.450635 60.343348 98.455078 60.380879 98.455078 60.845703 C 98.455078 61.277988 98.441878 61.365245 98.330078 61.597656 C 98.171693 61.941626 97.807611 62.304851 97.462891 62.462891 C 97.234629 62.569793 97.135894 62.587891 96.753906 62.587891 C 96.362601 62.587891 96.274985 62.573975 96.023438 62.453125 C 95.250145 62.099859 94.821768 61.193264 95.054688 60.398438 C 95.241022 59.743036 95.721321 59.293275 96.382812 59.144531 C 96.522565 59.111994 96.648134 59.083984 96.662109 59.083984 z M 64.845703 60.101562 L 64.845703 63.169922 L 64.845703 66.238281 L 68.058594 66.238281 L 71.273438 66.238281 L 71.273438 63.169922 L 71.273438 60.101562 L 68.058594 60.101562 L 64.845703 60.101562 z M 77.888672 60.101562 L 77.888672 63.169922 L 77.888672 66.238281 L 81.101562 66.238281 L 84.316406 66.238281 L 84.316406 63.169922 L 84.316406 60.101562 L 81.101562 60.101562 L 77.888672 60.101562 z M 65.683594 60.9375 L 68.058594 60.9375 L 70.435547 60.9375 L 70.435547 63.169922 L 70.435547 65.400391 L 68.058594 65.400391 L 65.683594 65.400391 L 65.683594 63.169922 L 65.683594 60.9375 z M 78.726562 60.9375 L 81.101562 60.9375 L 83.478516 60.9375 L 83.478516 63.169922 L 83.478516 65.400391 L 81.101562 65.400391 L 78.726562 65.400391 L 78.726562 63.169922 L 78.726562 60.9375 z M 97.466797 64.367188 C 98.163226 64.372974 98.765224 64.387656 98.888672 64.40625 C 99.075007 64.434139 99.340569 64.657002 99.457031 64.884766 C 99.545541 65.061399 100.52734 69.510517 100.52734 69.738281 C 100.52734 70.077604 100.3609 70.142578 99.480469 70.142578 L 98.818359 70.142578 L 98.791016 70.429688 C 98.772378 70.592353 98.724762 71.160024 98.6875 71.699219 C 98.589674 72.954245 98.603856 72.884766 98.408203 72.884766 C 98.007582 72.884766 96.405243 73.129931 95.431641 73.34375 C 94.867972 73.464613 94.845703 73.470394 94.845703 73.386719 C 94.845703 73.098529 94.644987 70.759832 94.59375 70.490234 L 94.537109 70.166016 L 93.861328 70.142578 C 93.143936 70.119337 92.999713 70.076554 92.953125 69.890625 C 92.920516 69.760474 92.953016 69.59376 93.498047 67.097656 C 93.987178 64.843261 93.979086 64.884406 94.132812 64.703125 C 94.365731 64.424236 94.454423 64.406794 95.474609 64.378906 C 95.980045 64.364962 96.770368 64.361378 97.466797 64.367188 z M 32.794922 64.703125 L 32.794922 67.841797 L 32.794922 70.978516 L 34.564453 70.978516 L 36.335938 70.978516 L 36.335938 67.841797 L 36.335938 64.703125 L 34.564453 64.703125 L 32.794922 64.703125 z M 38.199219 64.703125 L 38.199219 67.841797 L 38.199219 70.978516 L 39.96875 70.978516 L 41.738281 70.978516 L 41.738281 67.841797 L 41.738281 64.703125 L 39.96875 64.703125 L 38.199219 64.703125 z M 43.648438 64.703125 L 43.648438 67.841797 L 43.648438 70.978516 L 45.419922 70.978516 L 47.189453 70.978516 L 47.189453 67.841797 L 47.189453 64.703125 L 45.419922 64.703125 L 43.648438 64.703125 z M 88.755859 64.990234 C 88.648134 64.991984 88.543977 65.009687 88.392578 65.046875 C 86.631709 65.483809 86.561997 67.98889 88.294922 68.523438 C 89.575978 68.913852 90.819002 67.835725 90.609375 66.515625 C 90.544162 66.129821 90.423277 65.883388 90.148438 65.585938 C 89.882908 65.288451 89.547858 65.107578 89.142578 65.033203 C 88.974877 65.002991 88.863586 64.988484 88.755859 64.990234 z M 33.587891 65.541016 L 34.541016 65.541016 L 35.496094 65.541016 L 35.496094 67.841797 L 35.496094 70.142578 L 34.541016 70.142578 L 33.587891 70.142578 L 33.587891 67.841797 L 33.587891 65.541016 z M 39.037109 65.541016 L 39.96875 65.541016 L 40.900391 65.541016 L 40.900391 67.841797 L 40.900391 70.142578 L 39.96875 70.142578 L 39.037109 70.142578 L 39.037109 67.841797 L 39.037109 65.541016 z M 44.488281 65.541016 L 45.419922 65.541016 L 46.351562 65.541016 L 46.351562 67.841797 L 46.351562 70.142578 L 45.419922 70.142578 L 44.488281 70.142578 L 44.488281 67.841797 L 44.488281 65.541016 z M 88.802734 65.832031 C 89.050793 65.821573 89.252135 65.90871 89.46875 66.107422 C 89.841421 66.451392 89.892336 66.925136 89.603516 67.357422 C 89.459106 67.580538 89.092004 67.771484 88.8125 67.771484 C 88.314053 67.766836 87.857422 67.30744 87.857422 66.800781 C 87.857422 66.424275 88.187731 65.967963 88.537109 65.875 C 88.632606 65.850597 88.720048 65.835517 88.802734 65.832031 z M 108.4707 67.181641 L 108.79688 67.189453 L 108.81055 67.734375 L 108.82422 68.283203 L 108.14844 68.283203 L 107.47852 68.283203 L 107.58984 67.902344 C 107.72028 67.451465 107.78527 67.348356 107.99023 67.246094 C 108.09738 67.190269 108.24244 67.172391 108.4707 67.181641 z M 108.21484 68.933594 L 108.82031 68.933594 L 108.82031 69.630859 C 108.82031 70.012014 108.81016 70.328125 108.80078 70.328125 C 108.77749 70.328125 107.60935 68.989569 107.60938 68.957031 C 107.60938 68.943044 107.8841 68.933594 108.21484 68.933594 z M 107.16992 69.546875 C 107.20253 69.579413 107.58555 70.016311 108.02344 70.513672 L 108.82031 71.419922 L 108.82031 72.753906 C 108.82031 73.492976 108.80499 74.09375 108.79102 74.09375 C 108.77238 74.09375 108.68061 74.069647 108.57812 74.037109 C 108.42441 73.990628 108.40054 73.967697 108.42383 73.888672 C 108.56824 73.382014 108.60084 73.177016 108.60547 72.814453 C 108.61013 72.344981 108.53985 72.014514 108.35352 71.605469 C 108.11128 71.066274 107.60436 70.526865 107.11523 70.285156 C 106.95684 70.206139 106.91031 70.160034 106.93359 70.099609 C 106.94757 70.057776 106.99789 69.904603 107.03516 69.755859 C 107.09571 69.537438 107.12333 69.500387 107.16992 69.546875 z M 88.845703 69.634766 C 89.474003 69.637084 90.098542 69.653753 90.177734 69.681641 C 90.485183 69.788551 90.484727 69.770233 90.228516 71.564453 C 90.102739 72.456914 89.957487 73.664322 89.90625 74.25 C 89.855012 74.835679 89.808203 75.319594 89.798828 75.324219 C 89.794169 75.328868 89.618583 75.427525 89.404297 75.539062 L 89.021484 75.742188 L 88.867188 75.654297 C 88.787993 75.607814 88.505009 75.453901 88.244141 75.314453 C 87.978612 75.175007 87.763672 75.0452 87.763672 75.03125 C 87.759014 74.784894 87.582966 73.089043 87.419922 71.699219 C 87.214958 69.979371 87.209119 69.927969 87.292969 69.816406 C 87.339553 69.755986 87.427719 69.685825 87.488281 69.671875 C 87.583778 69.643962 88.217403 69.632447 88.845703 69.634766 z M 72.064453 70.513672 L 74.650391 70.513672 L 77.236328 70.513672 L 77.236328 71.716797 L 77.236328 72.925781 L 77.041016 72.949219 C 76.929214 72.963156 76.472596 73.014563 76.025391 73.070312 C 74.995887 73.191168 73.834784 73.423958 72.837891 73.716797 L 72.064453 73.939453 L 72.064453 72.228516 L 72.064453 70.513672 z M 105.72656 70.630859 C 105.86806 70.630281 105.98534 70.643987 106.01562 70.671875 C 106.02496 70.68582 105.89427 71.142176 105.72656 71.695312 C 105.55886 72.248453 105.41992 72.75375 105.41992 72.828125 C 105.41992 73.097719 105.78752 73.238195 105.97852 73.042969 C 106.02976 72.991837 106.19723 72.517318 106.37891 71.931641 C 106.54661 71.369203 106.6957 70.899875 106.70508 70.890625 C 106.74235 70.84879 107.14224 71.132626 107.33789 71.341797 C 107.75249 71.783379 107.96651 72.372837 107.91992 72.949219 C 107.89197 73.311781 107.76234 73.720703 107.67383 73.720703 C 107.64122 73.720703 107.35659 73.650813 107.03516 73.5625 C 106.27118 73.353329 105.1994 73.139916 104.29102 73.009766 L 103.55664 72.908203 L 103.55664 72.744141 C 103.55664 72.651176 103.58774 72.456595 103.625 72.3125 C 103.83929 71.49441 104.48707 70.857063 105.29297 70.675781 C 105.41875 70.645581 105.58506 70.631438 105.72656 70.630859 z M 115.89062 70.884766 C 115.97451 70.884766 116.44543 71.258172 116.58984 71.439453 C 116.80879 71.713699 117.01005 72.164116 117.05664 72.494141 C 117.0753 72.647533 117.08945 72.795122 117.08008 72.818359 C 117.0661 72.864884 116.31061 72.857034 116.00781 72.810547 L 115.85352 72.787109 L 115.85352 71.837891 C 115.85352 71.312639 115.87201 70.884766 115.89062 70.884766 z M 100.63086 73.591797 C 103.14173 73.568556 105.66554 73.957377 108.02734 74.738281 L 108.84375 75.007812 L 109.28516 74.835938 C 112.6159 73.525134 116.18426 73.289255 119.60352 74.144531 C 125.91563 75.72958 130.82078 80.712614 132.26953 87.015625 C 134.04438 94.740997 130.29888 102.62749 123.17188 106.16016 C 122.8225 106.33214 122.40478 106.53379 122.23242 106.60352 L 121.92773 106.72852 L 121.63477 107.31836 C 120.49346 109.61459 119.02651 111.64543 117.20508 113.46289 C 113.46905 117.20007 108.63358 119.50686 103.31836 120.08789 C 95.902173 120.89668 88.564578 118.13054 83.458984 112.58984 L 83.189453 112.29688 L 82.853516 112.37109 C 80.659416 112.8731 78.353517 112.9796 76.103516 112.69141 C 72.768111 112.26377 69.549508 110.96796 66.908203 108.97852 C 66.689258 108.81118 66.493991 108.67578 66.470703 108.67578 C 66.452069 108.67578 66.205285 108.82067 65.925781 109.00195 C 65.646277 109.17859 65.133031 109.46985 64.792969 109.64648 C 60.903216 111.67312 56.385156 112.12874 52.197266 110.90625 L 51.558594 110.7207 L 51.158203 111.03711 C 48.535531 113.11022 45.316178 114.48049 41.966797 114.94531 C 36.851888 115.65649 31.592611 114.21099 27.535156 110.98047 C 26.850373 110.43662 26.030752 109.67498 25.513672 109.11719 L 25.048828 108.60547 L 24.181641 108.16406 C 22.495304 107.29949 21.313046 106.45928 20.087891 105.24609 C 17.530436 102.7128 15.99755 99.61621 15.480469 95.939453 C 15.363981 95.107418 15.367912 92.909221 15.484375 92.058594 C 15.978164 88.470155 17.510917 85.351573 20.007812 82.855469 C 22.691045 80.168787 26.067592 78.588384 29.882812 78.230469 C 30.521012 78.170044 31.922954 78.170044 32.533203 78.230469 C 32.994383 78.276955 32.999296 78.276711 33.511719 78.109375 C 34.620415 77.75146 35.841384 77.486438 37.150391 77.314453 C 38.165919 77.184298 40.645223 77.198443 41.693359 77.337891 C 44.064479 77.658619 46.11755 78.286526 48.050781 79.28125 C 48.358235 79.43929 48.675916 79.605856 48.759766 79.652344 L 48.904297 79.736328 L 49.644531 79.382812 C 50.445775 78.992394 50.902611 78.811159 51.820312 78.513672 C 55.75665 77.235407 60.308143 77.519567 64.048828 79.28125 C 64.342307 79.420691 64.602909 79.53125 64.630859 79.53125 C 64.663468 79.53125 64.769362 79.446756 64.867188 79.339844 C 64.969671 79.237582 65.286904 78.945575 65.566406 78.699219 C 68.291564 76.291431 71.440701 74.738916 74.953125 74.074219 C 79.583562 73.195701 84.376878 74.028032 88.490234 76.421875 C 88.746446 76.575271 88.984966 76.695314 89.017578 76.695312 C 89.050187 76.695312 89.235237 76.602528 89.435547 76.486328 C 89.994553 76.165599 91.350216 75.523777 92.072266 75.240234 C 94.443386 74.305938 96.755458 73.799211 99.503906 73.613281 C 99.620365 73.603994 100.12775 73.596422 100.63086 73.591797 z M 43.369141 84.179688 L 43.369141 92.988281 L 43.369141 101.79688 L 44.859375 101.79688 L 46.351562 101.79688 L 46.351562 92.988281 L 46.351562 84.179688 L 44.859375 84.179688 L 43.369141 84.179688 z M 63.074219 84.318359 L 63.074219 85.736328 L 63.074219 87.154297 L 64.681641 87.154297 L 66.289062 87.154297 L 66.289062 85.736328 L 66.289062 84.318359 L 64.681641 84.318359 L 63.074219 84.318359 z M 95.263672 84.318359 L 95.263672 85.736328 L 95.263672 87.154297 L 96.871094 87.154297 L 98.478516 87.154297 L 98.478516 85.736328 L 98.478516 84.318359 L 96.871094 84.318359 L 95.263672 84.318359 z M 35.146484 84.607422 C 33.20442 84.59503 31.472912 85.093217 30.013672 86.09375 C 28.075782 87.423146 26.842039 89.352917 26.380859 91.779297 C 26.283034 92.290603 26.244578 93.848112 26.314453 94.457031 C 26.766317 98.403385 29.674699 101.42948 33.564453 102.00586 C 34.174702 102.09882 35.533968 102.10832 36.21875 102.0293 C 38.18459 101.80153 39.783044 101.03498 41.320312 99.580078 L 41.808594 99.115234 L 40.859375 98.128906 C 40.337636 97.589711 39.890475 97.148437 39.867188 97.148438 C 39.843896 97.148437 39.671463 97.282659 39.480469 97.445312 C 38.60935 98.202975 37.695167 98.774855 36.921875 99.035156 C 35.892372 99.388429 34.541526 99.421276 33.498047 99.119141 C 31.746493 98.612482 30.336205 97.18957 29.753906 95.353516 C 29.530306 94.656279 29.46875 94.21442 29.46875 93.335938 C 29.46875 92.238952 29.617405 91.501368 30.027344 90.599609 C 30.409331 89.772223 31.205829 88.822323 31.951172 88.320312 C 32.389061 88.022859 33.144277 87.680463 33.666016 87.541016 C 34.085271 87.429463 34.197254 87.414068 35.007812 87.414062 C 35.748497 87.414063 35.963569 87.428056 36.322266 87.511719 C 37.305186 87.744131 38.278787 88.270194 39.322266 89.134766 C 39.671644 89.427606 39.754194 89.478859 39.800781 89.427734 C 39.83339 89.390548 40.26793 88.892046 40.761719 88.320312 C 41.493091 87.479015 41.650544 87.270153 41.613281 87.205078 C 41.529431 87.070279 40.653945 86.359322 40.160156 86.029297 C 38.972268 85.239097 37.569428 84.774683 35.990234 84.644531 C 35.704326 84.621871 35.423922 84.609192 35.146484 84.607422 z M 86.226562 84.625 C 86.138054 84.6343 85.86333 84.667459 85.621094 84.695312 C 84.638174 84.80687 83.483356 85.188688 82.570312 85.695312 C 81.876212 86.081116 81.423501 86.420651 80.808594 87.015625 C 79.322569 88.447283 78.442352 90.246456 78.21875 92.324219 C 77.883345 95.396704 79.048074 98.366268 81.302734 100.18359 C 83.044971 101.59201 85.09478 102.21441 87.507812 102.07031 C 89.468994 101.95411 90.881308 101.44229 92.390625 100.29883 C 92.78193 100.00134 93.679684 99.160778 93.679688 99.095703 C 93.679687 99.039924 91.817619 97.148438 91.761719 97.148438 C 91.733768 97.148437 91.593629 97.255826 91.449219 97.390625 C 90.824995 97.962359 89.735249 98.681378 89.125 98.927734 C 88.249223 99.285644 87.075468 99.411673 86.087891 99.267578 C 84.024224 98.956146 82.341482 97.472805 81.666016 95.367188 C 81.442417 94.665302 81.367171 94.153994 81.367188 93.335938 C 81.367188 92.206415 81.573673 91.313671 82.048828 90.388672 C 82.770878 88.980255 84.074521 87.926077 85.560547 87.544922 C 86.436323 87.321804 87.657572 87.345167 88.556641 87.605469 C 89.432418 87.856474 90.400802 88.427536 91.341797 89.236328 C 91.514157 89.385072 91.654447 89.474409 91.677734 89.451172 C 91.701026 89.427932 92.137968 88.925523 92.650391 88.339844 L 93.578125 87.271484 L 93.433594 87.113281 C 93.1867 86.85298 92.330162 86.186824 91.90625 85.921875 C 90.872088 85.280417 89.813508 84.900774 88.537109 84.714844 C 88.047979 84.645119 86.561969 84.583162 86.226562 84.625 z M 101.36719 85.527344 L 101.36719 87.292969 L 101.36719 89.060547 L 100.55078 89.060547 L 99.736328 89.060547 L 99.736328 90.337891 L 99.736328 91.617188 L 100.55078 91.617188 L 101.36719 91.617188 L 101.36719 95.164062 C 101.36719 99.393958 101.38108 99.555289 101.79102 100.39648 C 102.34536 101.52601 103.57476 102.08414 105.34961 102.00977 C 106.2347 101.97258 106.83025 101.83319 107.48242 101.50781 L 107.74805 101.37891 L 107.74805 100.16406 C 107.74805 99.029989 107.74446 98.952581 107.66992 98.980469 C 107.62334 98.994414 107.4084 99.068203 107.18945 99.142578 C 106.67237 99.323856 106.18233 99.397772 105.73047 99.365234 C 105.09693 99.314103 104.67958 99.040331 104.47461 98.542969 C 104.37212 98.287316 104.3714 98.286654 104.35742 94.949219 L 104.34375 91.617188 L 106.07227 91.617188 L 107.79492 91.617188 L 107.79492 90.337891 L 107.79492 89.060547 L 106.07227 89.060547 L 104.34766 89.060547 L 104.34766 87.292969 L 104.34766 85.527344 L 102.85742 85.527344 L 101.36719 85.527344 z M 76.072266 88.78125 L 75.759766 88.785156 C 75.074982 88.799101 74.445713 88.92458 73.947266 89.152344 C 73.090122 89.538148 72.284963 90.348012 71.753906 91.361328 L 71.556641 91.732422 L 71.552734 90.394531 L 71.552734 89.060547 L 70.039062 89.060547 L 68.525391 89.060547 L 68.525391 95.427734 L 68.525391 101.79688 L 70.039062 101.79688 L 71.552734 101.79688 L 71.552734 98.994141 C 71.552734 96.77693 71.567147 96.102525 71.623047 95.753906 C 71.841992 94.32225 72.470205 93.235208 73.453125 92.59375 C 74.054057 92.19865 74.948611 91.941406 75.726562 91.941406 L 76.072266 91.941406 L 76.072266 90.361328 L 76.072266 88.78125 z M 54.21875 88.861328 C 53.554347 88.881663 52.897419 88.950572 52.359375 89.064453 C 51.492915 89.250383 49.81745 89.851328 49.859375 89.962891 C 49.868692 89.990781 50.054044 90.524832 50.263672 91.152344 C 50.477958 91.779856 50.655531 92.296156 50.660156 92.300781 C 50.660156 92.30543 50.850616 92.234797 51.074219 92.146484 C 51.661176 91.914072 52.537 91.668869 53.082031 91.589844 C 53.724889 91.492206 54.843204 91.491487 55.318359 91.59375 C 55.854074 91.705309 56.421511 91.987866 56.738281 92.308594 C 57.171511 92.74088 57.432875 93.414834 57.4375 94.107422 L 57.4375 94.396484 L 57.056641 94.285156 C 56.064404 94.010916 55.179167 93.894531 54.033203 93.894531 C 51.629476 93.894531 50.058461 94.595414 49.224609 96.041016 C 48.870571 96.654583 48.689588 97.659061 48.773438 98.546875 C 49.001697 100.96861 51.359386 102.43815 54.298828 102.00586 C 55.360941 101.84782 56.282742 101.39243 57.083984 100.63477 L 57.4375 100.29492 L 57.4375 101.04883 L 57.4375 101.79688 L 58.910156 101.79688 L 60.376953 101.79688 L 60.359375 97.529297 C 60.3454 93.810707 60.330837 93.219439 60.265625 92.884766 C 59.795129 90.565295 58.444877 89.279244 56.125 88.949219 C 55.556677 88.870196 54.883153 88.840993 54.21875 88.861328 z M 63.214844 89.060547 L 63.214844 95.427734 L 63.214844 101.79688 L 64.705078 101.79688 L 66.195312 101.79688 L 66.195312 95.427734 L 66.195312 89.060547 L 64.705078 89.060547 L 63.214844 89.060547 z M 95.357422 89.060547 L 95.357422 95.427734 L 95.357422 101.79688 L 96.871094 101.79688 L 98.384766 101.79688 L 98.384766 95.427734 L 98.384766 89.060547 L 96.871094 89.060547 L 95.357422 89.060547 z M 118.48047 89.060547 L 116.85547 93.708984 C 115.96106 96.265515 115.21515 98.357422 115.20117 98.357422 C 115.1872 98.357422 114.37622 96.269359 113.39844 93.71875 L 111.61914 89.083984 L 110.03516 89.070312 C 109.15938 89.065646 108.44727 89.068875 108.44727 89.078125 C 108.44727 89.087421 109.63447 91.937922 111.08789 95.410156 C 112.53665 98.887038 113.72533 101.76406 113.7207 101.81055 C 113.70673 102.0755 113.10553 102.88372 112.80273 103.03711 C 112.25304 103.3253 111.51805 103.28834 110.65625 102.92578 C 110.43265 102.83282 110.24129 102.77754 110.22266 102.80078 C 110.13881 102.8891 109.24429 104.92375 109.26758 104.96094 C 109.34677 105.09574 110.50559 105.52476 111.08789 105.64062 C 111.64224 105.74754 112.84876 105.74754 113.33789 105.64062 C 114.43727 105.39461 115.26669 104.68815 115.9375 103.42383 C 116.25427 102.82885 116.18498 103.00902 119.03125 95.660156 C 120.41479 92.094957 121.55634 89.147772 121.57031 89.115234 C 121.58895 89.073409 121.26227 89.060547 120.03711 89.060547 L 118.48047 89.060547 z M 54.8125 96.005859 C 55.278339 96.013994 55.756708 96.044944 56.017578 96.09375 C 56.492733 96.182066 57.134426 96.344059 57.330078 96.427734 L 57.484375 96.492188 L 57.484375 96.994141 C 57.484375 97.296276 57.455988 97.608054 57.414062 97.775391 C 57.139218 98.821244 56.165384 99.574774 54.814453 99.779297 C 54.022527 99.900152 53.361449 99.825299 52.755859 99.537109 C 52.322629 99.337234 52.024372 99.068306 51.861328 98.738281 C 51.740269 98.496574 51.730469 98.425728 51.730469 97.960938 C 51.730469 97.510059 51.745169 97.423273 51.847656 97.21875 C 52.066601 96.77252 52.587623 96.362453 53.169922 96.171875 C 53.267748 96.139337 53.497259 96.087969 53.683594 96.050781 C 53.893221 96.011275 54.346661 95.997725 54.8125 96.005859 z "
       transform="scale(0.8,0.79999992)"
       id="rect4258" />
  </g>
</svg>
