<?xml version="1.0" encoding="UTF-8" standalone="no"?>
<svg
   xmlns:dc="http://purl.org/dc/elements/1.1/"
   xmlns:cc="http://creativecommons.org/ns#"
   xmlns:rdf="http://www.w3.org/1999/02/22-rdf-syntax-ns#"
   xmlns:svg="http://www.w3.org/2000/svg"
   xmlns="http://www.w3.org/2000/svg"
   xmlns:sodipodi="http://sodipodi.sourceforge.net/DTD/sodipodi-0.dtd"
   xmlns:inkscape="http://www.inkscape.org/namespaces/inkscape"
   version="1.0"
   width="150.00008"
   height="138.74989"
   viewBox="0 0 120.00006 110.99991"
   preserveAspectRatio="xMidYMid meet"
   id="svg4125"
   inkscape:version="0.48.4 r9939"
   sodipodi:docname="logo_color.svg">
  <defs
     id="defs4209" />
  <sodipodi:namedview
     pagecolor="#ffffff"
     bordercolor="#666666"
     borderopacity="1"
     objecttolerance="10"
     gridtolerance="10"
     guidetolerance="10"
     inkscape:pageopacity="0"
     inkscape:pageshadow="2"
     inkscape:window-width="1855"
     inkscape:window-height="1056"
     id="namedview4207"
     showgrid="false"
     fit-margin-top="0"
     fit-margin-left="0"
     fit-margin-right="0"
     fit-margin-bottom="0"
     inkscape:zoom="4.0945947"
     inkscape:cx="75.78519"
     inkscape:cy="48.630396"
     inkscape:window-x="65"
     inkscape:window-y="24"
     inkscape:window-maximized="1"
     inkscape:current-layer="layer1" />
  <metadata
     id="metadata4127">
Created by potrace 1.11, written by Peter Selinger 2001-2013
<rdf:RDF>
  <cc:Work
     rdf:about="">
    <dc:format>image/svg+xml</dc:format>
    <dc:type
       rdf:resource="http://purl.org/dc/dcmitype/StillImage" />
    <dc:title></dc:title>
  </cc:Work>
</rdf:RDF>
</metadata>
  <g
     inkscape:groupmode="layer"
     id="layer1"
     inkscape:label="bg">
    <rect
       style="fill:#ffffff;fill-opacity:1;stroke:none"
       id="rect3247"
       width="183.16832"
       height="166.0726"
       x="-11.722772"
       y="-9.0058784"
       transform="matrix(0.79999999,0,0,0.79999999,0,-1.7966315e-6)" />
  </g>
  <g
     inkscape:groupmode="layer"
     id="layer2"
     inkscape:label="fg">
    <g
       transform="matrix(0.00372671,0,0,-0.00371859,0,110.99991)"
       id="g4129"
       style="fill:#003f6e;fill-opacity:1;stroke:none">
      <path
         d="M 0,14925 0,0 l 16100,0 16100,0 0,14925 0,14925 -16100,0 -16100,0 0,-14925 z m 20274,11086 c 477,-97 863,-379 1106,-808 50,-87 56,-94 109,-118 90,-42 240,-148 319,-225 222,-219 343,-488 359,-796 17,-341 -99,-657 -330,-901 -317,-334 -816,-460 -1247,-315 l -84,29 -71,-23 c -107,-34 -207,-53 -348,-66 -279,-25 -582,31 -842,156 l -90,44 -88,-45 c -331,-166 -714,-193 -1063,-77 -155,52 -339,158 -452,259 -46,42 -63,50 -120,61 -37,7 -70,10 -73,6 -4,-4 -26,-51 -49,-104 -74,-169 -145,-223 -285,-216 -93,4 -156,40 -200,114 l -30,50 -80,-28 c -148,-50 -235,-63 -425,-63 -267,0 -391,27 -464,101 -138,138 -77,375 111,430 54,16 65,16 159,0 278,-45 484,-1 627,132 77,72 115,86 217,80 66,-4 79,-2 88,13 6,10 32,30 57,45 34,19 44,31 40,43 -4,9 -16,61 -27,116 -27,130 -29,368 -5,501 79,431 351,793 744,989 195,96 375,138 603,137 92,0 187,-6 233,-14 l 78,-14 19,26 c 27,37 176,165 267,227 197,136 449,234 691,268 136,20 415,12 546,-14 z m -8394,-6464 0,-6252 88,7 c 296,22 724,-5 1010,-65 l 62,-14 0,1744 0,1743 -465,0 c -256,0 -465,3 -465,8 0,4 138,180 306,392 382,480 1321,1662 1516,1910 146,184 184,221 249,241 23,7 434,10 1312,9 l 1277,-2 0,316 0,316 810,0 809,0 3,-652 3,-653 30,-52 c 17,-29 147,-199 290,-379 922,-1161 1125,-1422 1125,-1448 0,-3 -202,-6 -450,-6 l -450,0 -2,-351 -3,-351 -54,-18 c -29,-11 -64,-26 -77,-35 -13,-8 -28,-15 -34,-15 -7,0 -10,154 -10,475 l 0,475 365,0 366,0 -73,93 c -41,50 -296,372 -568,714 -272,343 -518,657 -547,698 -95,136 -93,121 -93,771 l 0,564 -630,0 -630,0 0,-321 0,-322 -1337,5 c -762,3 -1350,2 -1369,-3 -26,-8 -85,-76 -342,-402 -170,-215 -560,-707 -866,-1092 l -556,-700 370,-3 370,-2 0,-1854 0,-1854 175,-56 c 96,-31 234,-81 306,-112 72,-30 135,-54 139,-52 4,2 67,55 139,117 174,152 294,243 481,366 240,157 455,273 710,381 l 125,53 3,491 2,490 730,0 730,0 0,-343 0,-344 206,-6 c 561,-19 1076,-126 1559,-325 86,-36 121,-46 123,-37 5,19 -10,161 -63,617 -48,405 -48,407 -30,454 24,64 75,117 138,145 51,24 57,24 377,24 309,0 327,-1 370,-21 25,-11 60,-36 79,-55 36,-36 81,-121 81,-154 0,-11 -30,-255 -66,-543 -37,-287 -64,-525 -61,-528 2,-3 65,20 138,51 133,56 534,195 563,195 11,0 14,8 11,28 -3,15 -12,122 -20,237 -8,116 -18,235 -21,266 l -6,56 -92,5 c -78,4 -101,10 -146,34 -84,45 -130,122 -130,213 0,47 147,755 210,1014 42,172 97,249 220,306 l 55,26 510,0 510,0 57,-27 c 31,-14 76,-45 101,-67 86,-80 95,-106 216,-669 123,-570 128,-605 85,-690 -46,-92 -118,-131 -261,-139 -85,-5 -94,-8 -97,-27 -6,-26 -26,-291 -26,-332 l 0,-30 278,0 c 152,0 318,-3 368,-7 l 91,-8 6,78 c 15,227 181,436 407,514 74,25 216,37 270,22 l 35,-10 83,281 c 94,320 112,365 161,408 61,54 115,72 218,72 l 93,1 0,325 0,325 -83,29 c -223,79 -440,230 -575,402 l -64,82 -57,7 c -1020,121 -1764,1051 -1661,2076 39,386 204,772 448,1048 l 49,57 -14,69 c -43,204 27,446 176,607 117,127 279,211 431,225 l 65,5 1,162 c 1,141 4,174 27,261 102,383 391,669 785,777 102,28 384,32 474,6 l 57,-16 73,46 c 536,334 1242,368 1823,87 384,-186 717,-523 895,-908 90,-195 155,-444 167,-638 l 6,-105 61,-32 c 89,-46 217,-152 283,-235 32,-40 83,-94 113,-122 289,-265 400,-404 526,-660 494,-1006 7,-2225 -1046,-2618 -196,-73 -365,-106 -585,-114 -220,-8 -376,10 -616,72 -23,6 -30,-1 -73,-65 -26,-39 -76,-104 -111,-145 l -65,-74 0,-856 0,-856 45,-19 c 202,-87 345,-290 364,-516 l 6,-77 135,-23 c 1033,-173 1934,-739 2541,-1595 674,-951 880,-2185 554,-3314 -182,-627 -509,-1179 -975,-1645 -320,-321 -657,-559 -1075,-761 l -160,-77 -33,-69 c -89,-180 -267,-481 -390,-658 -313,-448 -699,-850 -1124,-1170 -780,-588 -1683,-933 -2675,-1020 -220,-19 -685,-20 -906,0 -659,58 -1262,228 -1862,526 -521,258 -958,572 -1372,986 l -152,152 -128,-24 c -980,-179 -1995,-23 -2853,440 -172,93 -239,133 -413,251 l -138,94 -102,-61 c -56,-33 -174,-96 -262,-139 -575,-281 -1203,-409 -1853,-379 -287,13 -533,51 -805,123 l -128,34 -129,-97 c -334,-249 -760,-470 -1170,-607 -1155,-386 -2420,-262 -3476,341 -345,197 -745,514 -994,787 -79,88 -92,97 -190,143 -443,210 -880,550 -1195,928 -682,820 -963,1879 -780,2937 91,527 326,1068 653,1506 354,473 838,868 1352,1105 l 105,48 3,6441 2,6440 3295,0 3295,0 0,-6253 z m 2720,2018 c 122,-21 283,-61 338,-86 l 44,-19 43,26 c 123,71 491,47 750,-51 98,-37 249,-114 289,-147 87,-71 113,-215 58,-319 -47,-91 -154,-147 -255,-136 -28,4 -92,28 -160,62 -112,55 -245,96 -359,109 l -57,7 -106,-141 c -58,-77 -124,-154 -146,-170 -114,-82 -287,-50 -363,67 -27,42 -39,82 -56,194 l -12,77 -82,13 c -44,8 -151,14 -236,14 l -155,0 -81,-37 c -68,-32 -92,-38 -148,-38 -77,0 -118,14 -171,61 -112,99 -113,289 -1,387 69,61 205,114 351,138 103,17 385,11 515,-11 z m 6341,-4278 c 181,-62 318,-205 364,-382 19,-74 19,-223 0,-295 -25,-95 -73,-177 -143,-248 -108,-108 -240,-162 -395,-162 -156,0 -281,52 -393,164 -177,177 -215,434 -97,658 65,125 176,218 313,265 93,32 257,32 351,0 z m -5641,-1027 0,-660 -690,0 -690,0 0,660 0,660 690,0 690,0 0,-660 z m 2800,0 0,-660 -690,0 -690,0 0,660 0,660 690,0 690,0 0,-660 z m 1036,-401 c 87,-16 159,-55 216,-119 59,-64 85,-117 99,-200 45,-284 -222,-516 -497,-432 -372,115 -357,654 21,748 65,16 89,16 161,3 z"
         id="path4131"
         style="fill:#003f6e;fill-opacity:1"
         inkscape:connector-curvature="0" />
      <path
         d="m 19800,25854 c -166,-20 -354,-79 -508,-159 -146,-76 -250,-153 -377,-281 l -110,-111 -105,24 c -125,29 -331,35 -450,14 -354,-62 -660,-278 -842,-594 -101,-174 -150,-361 -151,-572 -1,-142 6,-197 44,-336 21,-77 21,-77 69,-98 163,-70 321,-67 480,8 140,66 286,25 354,-99 53,-97 42,-215 -28,-296 -52,-61 -235,-144 -353,-161 -24,-3 -40,-9 -37,-14 10,-16 128,-81 209,-114 352,-146 729,-116 1070,85 l 87,52 47,-27 c 88,-50 226,-114 305,-140 163,-52 267,-68 451,-68 189,0 303,18 469,74 l 89,31 81,-32 c 233,-93 510,-93 740,-1 611,245 846,982 484,1522 -107,160 -272,299 -442,373 l -78,34 -55,103 c -82,155 -146,242 -268,365 -204,205 -441,334 -723,395 -94,20 -364,34 -452,23 z"
         id="path4133"
         style="fill:#003f6e;fill-opacity:1"
         inkscape:connector-curvature="0" />
      <path
         d="m 17175,23587 c -10,-8 -41,-65 -69,-127 -28,-62 -56,-112 -61,-112 -5,0 -20,26 -33,59 -48,119 -92,132 -178,54 -97,-89 -224,-147 -378,-172 -88,-14 -321,-8 -404,11 -45,10 -56,10 -78,-5 -51,-33 -57,-100 -11,-129 41,-27 239,-49 382,-43 192,8 345,51 473,133 30,19 58,34 64,32 5,-2 29,-50 52,-107 45,-109 63,-131 107,-131 52,0 59,12 194,317 l 23,51 74,-23 c 213,-67 435,-56 633,34 95,43 118,98 65,151 -25,25 -60,25 -108,1 -175,-89 -418,-93 -617,-10 -77,32 -103,35 -130,16 z"
         id="path4135"
         style="fill:#003f6e;fill-opacity:1"
         inkscape:connector-curvature="0" />
      <path
         d="m 5460,19305 c 0,-3473 1,-6315 3,-6315 2,0 43,14 93,30 220,75 474,134 714,165 146,19 552,30 690,18 92,-8 98,-7 217,29 249,76 514,131 783,165 183,22 740,25 925,5 529,-59 1020,-200 1465,-422 l 155,-78 60,31 c 275,139 700,273 1023,324 l 112,17 0,6173 0,6173 -3120,0 -3120,0 0,-6315 z m 2340,4700 0,-675 -380,0 -380,0 0,675 0,675 380,0 380,0 0,-675 z m 1160,0 0,-675 -380,0 -380,0 0,675 0,675 380,0 380,0 0,-675 z m 1170,0 0,-675 -380,0 -380,0 0,675 0,675 380,0 380,0 0,-675 z m -2330,-1750 0,-675 -380,0 -380,0 0,675 0,675 380,0 380,0 0,-675 z m 1160,0 0,-675 -380,0 -380,0 0,675 0,675 380,0 380,0 0,-675 z m 1170,0 0,-675 -380,0 -380,0 0,675 0,675 380,0 380,0 0,-675 z m -2330,-1750 0,-675 -380,0 -380,0 0,675 0,675 380,0 380,0 0,-675 z m 1160,0 0,-675 -380,0 -380,0 0,675 0,675 380,0 380,0 0,-675 z m 1170,0 0,-675 -380,0 -380,0 0,675 0,675 380,0 380,0 0,-675 z m -2330,-1750 0,-675 -380,0 -380,0 0,675 0,675 380,0 380,0 0,-675 z m 1160,0 0,-675 -380,0 -380,0 0,675 0,675 380,0 380,0 0,-675 z m 1170,0 0,-675 -380,0 -380,0 0,675 0,675 380,0 380,0 0,-675 z m -2330,-1750 0,-675 -380,0 -380,0 0,675 0,675 380,0 380,0 0,-675 z m 1160,0 0,-675 -380,0 -380,0 0,675 0,675 380,0 380,0 0,-675 z m 1170,0 0,-675 -380,0 -380,0 0,675 0,675 380,0 380,0 0,-675 z m -2330,-1750 0,-675 -380,0 -380,0 0,675 0,675 380,0 380,0 0,-675 z m 1160,0 0,-675 -380,0 -380,0 0,675 0,675 380,0 380,0 0,-675 z m 1170,0 0,-675 -380,0 -380,0 0,675 0,675 380,0 380,0 0,-675 z"
         id="path4137"
         style="fill:#003f6e;fill-opacity:1"
         inkscape:connector-curvature="0" />
      <path
         d="m 7210,24005 0,-495 205,0 205,0 0,495 0,495 -205,0 -205,0 0,-495 z"
         id="path4139"
         style="fill:#003f6e;fill-opacity:1"
         inkscape:connector-curvature="0" />
      <path
         d="m 8380,24005 0,-495 200,0 200,0 0,495 0,495 -200,0 -200,0 0,-495 z"
         id="path4141"
         style="fill:#003f6e;fill-opacity:1"
         inkscape:connector-curvature="0" />
      <path
         d="m 9550,24005 0,-495 200,0 200,0 0,495 0,495 -200,0 -200,0 0,-495 z"
         id="path4143"
         style="fill:#003f6e;fill-opacity:1"
         inkscape:connector-curvature="0" />
      <path
         d="m 7210,22255 0,-495 205,0 205,0 0,495 0,495 -205,0 -205,0 0,-495 z"
         id="path4145"
         style="fill:#003f6e;fill-opacity:1"
         inkscape:connector-curvature="0" />
      <path
         d="m 8380,22255 0,-495 200,0 200,0 0,495 0,495 -200,0 -200,0 0,-495 z"
         id="path4147"
         style="fill:#003f6e;fill-opacity:1"
         inkscape:connector-curvature="0" />
      <path
         d="m 9550,22255 0,-495 200,0 200,0 0,495 0,495 -200,0 -200,0 0,-495 z"
         id="path4149"
         style="fill:#003f6e;fill-opacity:1"
         inkscape:connector-curvature="0" />
      <path
         d="m 7210,20505 0,-495 205,0 205,0 0,495 0,495 -205,0 -205,0 0,-495 z"
         id="path4151"
         style="fill:#003f6e;fill-opacity:1"
         inkscape:connector-curvature="0" />
      <path
         d="m 8380,20505 0,-495 200,0 200,0 0,495 0,495 -200,0 -200,0 0,-495 z"
         id="path4153"
         style="fill:#003f6e;fill-opacity:1"
         inkscape:connector-curvature="0" />
      <path
         d="m 9550,20505 0,-495 200,0 200,0 0,495 0,495 -200,0 -200,0 0,-495 z"
         id="path4155"
         style="fill:#003f6e;fill-opacity:1"
         inkscape:connector-curvature="0" />
      <path
         d="m 7210,18755 0,-495 205,0 205,0 0,495 0,495 -205,0 -205,0 0,-495 z"
         id="path4157"
         style="fill:#003f6e;fill-opacity:1"
         inkscape:connector-curvature="0" />
      <path
         d="m 8380,18755 0,-495 200,0 200,0 0,495 0,495 -200,0 -200,0 0,-495 z"
         id="path4159"
         style="fill:#003f6e;fill-opacity:1"
         inkscape:connector-curvature="0" />
      <path
         d="m 9550,18755 0,-495 200,0 200,0 0,495 0,495 -200,0 -200,0 0,-495 z"
         id="path4161"
         style="fill:#003f6e;fill-opacity:1"
         inkscape:connector-curvature="0" />
      <path
         d="m 7210,17005 0,-495 205,0 205,0 0,495 0,495 -205,0 -205,0 0,-495 z"
         id="path4163"
         style="fill:#003f6e;fill-opacity:1"
         inkscape:connector-curvature="0" />
      <path
         d="m 8380,17005 0,-495 200,0 200,0 0,495 0,495 -200,0 -200,0 0,-495 z"
         id="path4165"
         style="fill:#003f6e;fill-opacity:1"
         inkscape:connector-curvature="0" />
      <path
         d="m 9550,17005 0,-495 200,0 200,0 0,495 0,495 -200,0 -200,0 0,-495 z"
         id="path4167"
         style="fill:#003f6e;fill-opacity:1"
         inkscape:connector-curvature="0" />
      <path
         d="m 7210,15255 0,-495 205,0 205,0 0,495 0,495 -205,0 -205,0 0,-495 z"
         id="path4169"
         style="fill:#003f6e;fill-opacity:1"
         inkscape:connector-curvature="0" />
      <path
         d="m 8380,15255 0,-495 200,0 200,0 0,495 0,495 -200,0 -200,0 0,-495 z"
         id="path4171"
         style="fill:#003f6e;fill-opacity:1"
         inkscape:connector-curvature="0" />
      <path
         d="m 9550,15255 0,-495 200,0 200,0 0,495 0,495 -200,0 -200,0 0,-495 z"
         id="path4173"
         style="fill:#003f6e;fill-opacity:1"
         inkscape:connector-curvature="0" />
      <path
         d="m 24317,22129 c -265,-26 -541,-124 -772,-276 l -90,-59 -45,13 c -265,79 -521,46 -740,-95 -191,-123 -318,-294 -387,-519 -23,-78 -26,-104 -26,-228 0,-125 4,-152 31,-250 16,-60 28,-112 26,-114 -2,-3 -39,1 -82,7 -218,34 -352,-4 -493,-136 -153,-143 -205,-351 -137,-548 l 25,-69 -72,-80 c -225,-251 -365,-524 -432,-844 -23,-111 -27,-150 -27,-321 -1,-274 36,-459 138,-690 255,-579 781,-961 1416,-1030 58,-6 106,-15 108,-18 9,-27 94,-144 139,-193 134,-144 355,-270 571,-325 l 72,-18 0,-1182 0,-1182 123,38 c 67,20 164,47 215,59 l 92,23 0,1227 -1,1226 -144,79 c -638,347 -1149,826 -1386,1298 -102,203 -157,406 -173,641 l -6,77 174,0 174,0 7,-77 c 24,-267 126,-514 317,-766 65,-86 324,-351 418,-429 93,-76 280,-212 385,-280 103,-66 223,-138 231,-138 2,0 4,700 4,1555 l 0,1555 170,0 170,0 0,-834 c 0,-751 2,-834 16,-840 31,-12 284,-6 401,9 371,49 665,179 846,374 32,35 71,86 87,114 42,72 79,195 87,283 l 6,74 175,0 175,0 -7,-84 c -20,-261 -111,-466 -289,-652 -282,-295 -785,-474 -1333,-474 l -164,0 0,-1941 0,-1941 28,6 c 47,10 231,26 293,26 l 59,0 0,1196 0,1196 73,72 c 86,83 145,168 194,274 19,43 36,78 37,79 1,1 56,-15 121,-37 220,-71 302,-84 540,-84 178,-1 227,3 320,21 363,74 662,238 921,505 507,524 627,1303 302,1953 -113,226 -199,331 -494,605 -32,30 -81,83 -107,118 -64,83 -181,175 -293,229 l -92,45 -7,121 c -33,576 -306,1062 -770,1373 -331,221 -725,321 -1118,283 z"
         id="path4175"
         style="fill:#003f6e;fill-opacity:1"
         inkscape:connector-curvature="0" />
      <path
         d="m 20495,16000 c -219,-6 -238,-10 -288,-70 -33,-39 -31,-30 -136,-515 -117,-537 -124,-573 -117,-601 10,-40 41,-49 195,-54 l 145,-5 12,-70 c 11,-58 54,-561 54,-623 0,-18 5,-17 126,9 209,46 553,99 639,99 42,0 39,-15 60,255 8,116 18,238 22,273 l 6,62 142,0 c 189,0 225,14 225,87 0,49 -211,1006 -230,1044 -25,49 -82,97 -122,103 -53,8 -516,12 -733,6 z"
         id="path4177"
         style="fill:#003f6e;fill-opacity:1"
         inkscape:connector-curvature="0" />
      <path
         d="m 23182,15383 c -44,-22 -58,-44 -86,-141 l -24,-82 144,0 145,0 -3,118 -3,117 -70,2 c -49,2 -80,-2 -103,-14 z"
         id="path4179"
         style="fill:#003f6e;fill-opacity:1"
         inkscape:connector-curvature="0" />
      <path
         d="m 23100,15015 c 0,-7 251,-295 256,-295 2,0 4,68 4,150 l 0,150 -130,0 c -71,0 -130,-2 -130,-5 z"
         id="path4181"
         style="fill:#003f6e;fill-opacity:1"
         inkscape:connector-curvature="0" />
      <path
         d="m 22977,14843 c -8,-32 -19,-65 -22,-74 -5,-13 5,-23 39,-40 105,-52 214,-168 266,-284 40,-88 55,-159 54,-260 -1,-78 -8,-122 -39,-231 -5,-17 0,-22 33,-32 22,-7 42,-12 46,-12 3,0 6,129 6,288 l 0,287 -171,195 c -94,107 -176,201 -183,208 -10,10 -16,2 -29,-45 z"
         id="path4183"
         style="fill:#003f6e;fill-opacity:1"
         inkscape:connector-curvature="0" />
      <path
         d="m 18781,14861 c -13,-3 -32,-18 -42,-31 -18,-24 -17,-35 27,-405 35,-299 73,-664 74,-717 0,-3 46,-31 103,-61 56,-30 117,-63 134,-73 l 33,-19 82,44 c 46,24 84,45 85,46 2,1 12,105 23,231 11,126 42,386 69,578 55,386 55,382 -11,405 -34,12 -536,14 -577,2 z"
         id="path4185"
         style="fill:#003f6e;fill-opacity:1"
         inkscape:connector-curvature="0" />
      <path
         d="m 15470,14311 0,-368 166,48 c 214,63 463,113 684,139 96,12 194,23 218,26 l 42,5 0,260 0,259 -555,0 -555,0 0,-369 z"
         id="path4187"
         style="fill:#003f6e;fill-opacity:1"
         inkscape:connector-curvature="0" />
      <path
         d="m 22603,14645 c -173,-39 -312,-176 -358,-352 -8,-31 -15,-73 -15,-93 l 0,-35 158,-22 c 195,-28 425,-74 589,-119 69,-19 130,-34 137,-34 19,0 47,88 53,166 10,124 -36,251 -125,346 -42,45 -128,106 -136,97 -2,-2 -34,-103 -70,-224 -39,-126 -75,-228 -86,-239 -41,-42 -120,-12 -120,46 0,16 30,125 66,244 36,119 64,217 62,220 -13,12 -101,12 -155,-1 z"
         id="path4189"
         style="fill:#003f6e;fill-opacity:1"
         inkscape:connector-curvature="0" />
      <path
         d="m 24870,14395 0,-204 33,-5 c 65,-10 227,-12 230,-2 2,5 -1,37 -5,70 -10,71 -53,168 -100,227 -31,39 -132,119 -150,119 -4,0 -8,-92 -8,-205 z"
         id="path4191"
         style="fill:#003f6e;fill-opacity:1"
         inkscape:connector-curvature="0" />
      <path
         d="m 21360,14013 c -590,-40 -1086,-149 -1595,-350 -155,-61 -446,-199 -566,-268 -43,-25 -83,-45 -90,-45 -7,0 -58,26 -113,59 -883,515 -1912,694 -2906,505 -754,-143 -1430,-477 -2015,-995 -60,-53 -128,-116 -150,-138 -21,-23 -44,-41 -51,-41 -6,0 -62,24 -125,54 -803,379 -1780,440 -2625,165 -197,-64 -295,-103 -467,-187 l -159,-76 -31,18 c -18,10 -86,46 -152,80 -415,214 -856,349 -1365,418 -225,30 -757,33 -975,5 -281,-37 -543,-94 -781,-171 -110,-36 -111,-36 -210,-26 -131,13 -432,13 -569,0 -819,-77 -1544,-417 -2120,-995 -536,-537 -865,-1208 -971,-1980 -25,-183 -26,-656 -1,-835 111,-791 440,-1457 989,-2002 263,-261 517,-442 879,-628 l 186,-95 100,-110 c 111,-120 287,-284 434,-401 871,-695 2000,-1006 3098,-853 719,100 1410,395 1973,841 l 86,68 137,-40 c 899,-263 1869,-165 2704,271 73,38 183,101 243,139 60,39 113,70 117,70 5,0 47,-29 94,-65 567,-428 1258,-707 1974,-799 483,-62 978,-39 1449,69 l 72,16 58,-63 c 1096,-1192 2671,-1787 4263,-1613 1141,125 2179,621 2981,1425 391,391 706,828 951,1322 l 63,127 65,27 c 37,15 127,58 202,95 1530,760 2334,2457 1953,4119 -311,1356 -1364,2428 -2719,2769 -734,184 -1500,133 -2215,-149 l -95,-37 -175,58 c -507,168 -1049,252 -1588,247 -108,-1 -217,-3 -242,-5 z M 9950,9845 l 0,-1895 -320,0 -320,0 0,1895 0,1895 320,0 320,0 0,-1895 z m 4280,1560 0,-305 -345,0 -345,0 0,305 0,305 345,0 345,0 0,-305 z m 6910,0 0,-305 -345,0 -345,0 0,305 0,305 345,0 345,0 0,-305 z m -13414,235 c 339,-28 640,-128 895,-298 106,-71 294,-224 312,-253 8,-14 -26,-59 -183,-240 -106,-123 -199,-230 -206,-238 -10,-11 -28,0 -103,63 -224,186 -433,299 -644,349 -77,18 -123,21 -282,21 -174,0 -198,-3 -288,-27 -112,-30 -274,-104 -368,-168 -160,-108 -331,-312 -413,-490 -88,-194 -120,-353 -120,-589 0,-189 13,-284 61,-434 125,-395 428,-701 804,-810 224,-65 514,-58 735,18 166,56 362,179 549,342 41,35 78,64 83,64 5,0 101,-95 213,-211 l 204,-212 -105,-100 c -330,-313 -673,-478 -1095,-527 -147,-17 -439,-15 -570,5 -835,124 -1459,775 -1556,1624 -15,131 -7,466 14,576 99,522 364,937 780,1223 358,246 792,351 1283,312 z m 11280,-15 c 274,-40 501,-122 723,-260 91,-57 275,-200 328,-256 l 31,-34 -199,-230 c -110,-126 -204,-234 -209,-239 -5,-5 -35,14 -72,46 -202,174 -410,297 -598,351 -193,56 -455,61 -643,13 -319,-82 -599,-309 -754,-612 -102,-199 -146,-391 -146,-634 0,-176 16,-286 64,-437 145,-453 506,-772 949,-839 212,-31 464,-4 652,73 131,53 365,208 499,331 31,29 61,52 67,52 12,0 412,-407 412,-419 0,-14 -193,-195 -277,-259 -324,-246 -627,-356 -1048,-381 -518,-31 -958,103 -1332,406 -484,391 -734,1030 -662,1691 48,447 237,834 556,1142 132,128 229,201 378,284 196,109 444,191 655,215 52,6 111,13 130,15 72,9 391,-4 496,-19 z m 3394,-555 0,-380 370,0 370,0 0,-275 0,-275 -370,0 -371,0 3,-717 c 3,-718 3,-718 25,-773 44,-107 134,-166 270,-177 97,-7 202,9 313,48 47,16 93,32 103,35 16,6 17,-11 17,-255 l 0,-261 -57,-28 c -140,-70 -268,-100 -458,-108 -381,-16 -645,104 -764,347 -88,181 -91,216 -91,1126 l 0,763 -175,0 -175,0 0,275 0,275 175,0 175,0 0,380 0,380 320,0 320,0 0,-380 z m -6070,-660 0,-340 -74,0 c -167,0 -359,-55 -488,-140 -211,-138 -346,-372 -393,-680 -12,-75 -15,-220 -15,-697 l 0,-603 -325,0 -325,0 0,1370 0,1370 325,0 325,0 0,-287 1,-288 42,80 c 114,218 287,392 471,475 107,49 242,76 389,79 l 67,1 0,-340 z m -4282,304 c 498,-71 788,-348 889,-847 14,-72 17,-199 20,-999 l 4,-918 -315,0 -316,0 0,161 0,162 -76,-73 c -172,-163 -370,-261 -598,-295 -631,-93 -1137,223 -1186,744 -18,191 21,407 97,539 179,311 516,462 1032,462 246,0 436,-25 649,-84 l 82,-24 0,62 c -1,149 -57,294 -150,387 -68,69 -190,130 -305,154 -102,22 -342,22 -480,1 -117,-17 -305,-70 -431,-120 -48,-19 -89,-34 -89,-33 -1,1 -39,112 -85,247 -45,135 -85,250 -87,256 -9,24 351,153 537,193 231,49 564,59 808,25 z m 2162,-1394 0,-1370 -320,0 -320,0 0,1370 0,1370 320,0 320,0 0,-1370 z m 6910,0 0,-1370 -325,0 -325,0 0,1370 0,1370 325,0 325,0 0,-1370 z m 3223,368 c 210,-549 384,-998 387,-998 3,0 163,450 355,1000 l 349,1000 334,0 c 263,0 333,-3 329,-12 -3,-7 -248,-641 -545,-1408 -611,-1581 -596,-1542 -664,-1670 -144,-272 -322,-424 -558,-477 -105,-23 -364,-23 -483,0 -125,25 -374,117 -391,146 -5,8 187,446 205,465 4,5 45,-7 93,-27 185,-78 343,-86 461,-24 65,33 194,207 197,264 1,10 -254,629 -565,1377 -312,747 -567,1360 -567,1362 0,2 153,3 341,2 l 340,-3 382,-997 z"
         id="path4193"
         style="fill:#003f6e;fill-opacity:1"
         inkscape:connector-curvature="0" />
      <path
         d="m 11524,9186 c -40,-8 -89,-19 -110,-26 -125,-41 -237,-129 -284,-225 -22,-44 -25,-63 -25,-160 0,-100 2,-115 28,-167 35,-71 99,-129 192,-172 130,-62 272,-78 442,-52 290,44 499,206 558,431 9,36 15,103 15,168 l 0,108 -33,14 c -42,18 -180,53 -282,72 -112,21 -411,26 -501,9 z"
         id="path4195"
         style="fill:#003f6e;fill-opacity:1"
         inkscape:connector-curvature="0" />
      <path
         d="m 14118,21400 c -120,-20 -244,-71 -272,-112 -23,-32 -20,-71 7,-96 30,-29 62,-28 130,3 153,70 426,73 707,7 l 75,-17 26,-152 c 26,-155 36,-178 76,-194 43,-16 70,7 200,181 l 128,171 110,-5 c 183,-8 311,-42 483,-128 103,-51 103,-51 137,-35 39,18 53,54 39,96 -19,54 -258,161 -454,202 -109,22 -317,32 -372,16 -19,-5 -54,-41 -109,-113 -45,-58 -85,-102 -89,-97 -4,4 -12,39 -18,77 -16,99 -28,108 -183,146 -223,54 -476,74 -621,50 z"
         id="path4197"
         style="fill:#003f6e;fill-opacity:1"
         inkscape:connector-curvature="0" />
      <path
         d="m 20690,17126 c -142,-32 -245,-129 -285,-270 -50,-171 42,-366 208,-442 54,-26 73,-29 157,-29 82,0 103,4 152,27 74,34 152,112 186,186 24,50 27,69 27,162 0,100 -1,108 -34,168 -60,110 -160,182 -282,202 -35,5 -66,10 -69,9 -3,0 -30,-6 -60,-13 z"
         id="path4199"
         style="fill:#003f6e;fill-opacity:1"
         inkscape:connector-curvature="0" />
      <path
         d="m 14100,16260 0,-480 510,0 510,0 0,480 0,480 -510,0 -510,0 0,-480 z"
         id="path4201"
         style="fill:#003f6e;fill-opacity:1"
         inkscape:connector-curvature="0" />
      <path
         d="m 16900,16260 0,-480 510,0 510,0 0,480 0,480 -510,0 -510,0 0,-480 z"
         id="path4203"
         style="fill:#003f6e;fill-opacity:1"
         inkscape:connector-curvature="0" />
      <path
         d="m 19006,15678 c -75,-20 -146,-118 -146,-199 0,-109 98,-208 205,-209 60,0 139,41 170,89 62,93 51,195 -29,269 -62,57 -118,71 -200,50 z"
         id="path4205"
         style="fill:#003f6e;fill-opacity:1"
         inkscape:connector-curvature="0" />
    </g>
  </g>
</svg>
